<svg xmlns="http://www.w3.org/2000/svg" style="display: none;"><symbol id="arrow-up" viewBox="0 0 490.667 490.667"><title>arrow-up</title><g> <g> <path d="M245.333,0C110.059,0,0,110.059,0,245.333s110.059,245.333,245.333,245.333s245.333-110.059,245.333-245.333 S380.608,0,245.333,0z M245.333,469.333c-123.52,0-224-100.48-224-224s100.48-224,224-224s224,100.48,224,224 S368.853,469.333,245.333,469.333z"/> </g> </g><g> <g> <path d="M245.333,106.667c-5.888,0-10.667,4.779-10.667,10.667v256c0,5.888,4.779,10.667,10.667,10.667S256,379.221,256,373.333 v-256C256,111.445,251.221,106.667,245.333,106.667z"/> </g> </g><g> <g> <path d="M338.219,195.115l-85.333-85.333c-4.16-4.16-10.923-4.16-15.083,0l-85.333,85.333c-4.16,4.16-4.16,10.923,0,15.083 c4.16,4.16,10.923,4.16,15.083,0l77.781-77.781l77.781,77.803c2.091,2.069,4.821,3.115,7.552,3.115 c2.731,0,5.461-1.045,7.552-3.136C342.379,206.037,342.379,199.275,338.219,195.115z"/> </g> </g></symbol><symbol id="arrow-up-1" viewBox="0 0 368 368"><title>arrow-up-1</title><path d="M184,0C82.544,0,0,82.544,0,184s82.544,184,184,184s184-82.544,184-184S285.456,0,184,0z M184,352 c-92.64,0-168-75.36-168-168S91.36,16,184,16s168,75.36,168,168S276.64,352,184,352z"/><path d="M190.512,67.344c-3.008-4.208-10.016-4.208-13.024,0l-80,112.008c-1.736,2.44-1.976,5.648-0.6,8.312S101.008,192,104,192 h40v95.992c-0.008,4.28,1.656,8.304,4.672,11.328c3.024,3.024,7.04,4.688,11.32,4.688c0.032,0,0.064,0,0.104,0 c1.744-0.008,47.872-0.016,47.88-0.008c0.008,0,0.016,0,0.032,0c4.264,0,8.28-1.664,11.296-4.672 c3.024-3.024,4.688-7.04,4.696-11.32v-96h40c3,0,5.744-1.672,7.112-4.336c1.368-2.664,1.136-5.872-0.6-8.312L190.512,67.344z M216,176c-4.416,0-8,3.584-8,8l-0.008,104h-40.504c-2.816,0-5.336,0-7.496,0.216v-0.2c0-0.008,0-0.008,0-0.016V184 c0-4.416-3.584-8-8-8h-32.456l64.456-90.24L248.448,176H216z"/></symbol><symbol id="arrow-up-2" viewBox="0 0 54 54"><title>arrow-up-2</title><path d="M27,0C12.112,0,0,12.112,0,27s12.112,27,27,27s27-12.112,27-27S41.888,0,27,0z M27,52C13.215,52,2,40.785,2,27 S13.215,2,27,2s25,11.215,25,25S40.785,52,27,52z"/><path d="M28.209,19.501c-0.666-0.666-1.752-0.666-2.418,0L14.293,30.999c-0.391,0.391-0.391,1.023,0,1.414s1.023,0.391,1.414,0 L27,21.12l11.293,11.293c0.195,0.195,0.451,0.293,0.707,0.293s0.512-0.098,0.707-0.293c0.391-0.391,0.391-1.023,0-1.414 L28.209,19.501z"/></symbol><symbol id="drumstick" viewBox="0 0 512 512"><title>drumstick</title><g> <g> <path d="M505.507,456.221L300.164,255.582l143.337-146.697c2.19,0.308,4.402,0.462,6.62,0.462c0.001,0,0.001,0,0.001,0 c12.654,0,24.549-4.927,33.496-13.874c7.15-7.151,17.691-21.453,23.867-38.229c7.373-20.025,5.57-36.916-5.076-47.561 C496.14,3.414,487.519,0.1,477.48,0.1c-22.4,0-49.074,16.595-60.859,28.378c-10.575,10.575-15.457,25.507-13.409,40.117 l-147.21,143.838L108.795,68.595c2.048-14.609-2.835-29.541-13.411-40.117C83.601,16.695,56.928,0.1,34.525,0.1 c-10.038,0-18.658,3.314-24.93,9.584c-23.382,23.382,1.131,68.125,18.794,85.789c8.947,8.947,20.843,13.874,33.497,13.874 c2.218,0,4.431-0.155,6.62-0.463l143.336,146.698L6.499,456.221c-6.833,6.678-8.354,16.393-4.173,26.654 C8.037,496.892,24.752,511.9,40.532,511.9c6.009,0,11.316-2.18,15.346-6.304l200.125-204.818l200.128,204.818 c4.029,4.123,9.335,6.302,15.343,6.302c15.782,0,32.497-15.009,38.209-29.027C513.862,472.611,512.341,462.896,505.507,456.221z M79.005,91.012C77.098,89.06,74.508,88,71.852,88c-0.885,0-1.778,0.118-2.655,0.36c-2.377,0.655-4.837,0.987-7.311,0.987 c-7.313,0-14.187-2.847-19.354-8.016C29.132,67.931,12.364,35.2,23.736,23.826c2.509-2.508,6.037-3.727,10.789-3.727 c15.789,0,37.276,13.08,46.718,22.52c6.954,6.954,9.647,17.169,7.03,26.662c-0.968,3.509,0.048,7.267,2.651,9.811l150.771,147.321 l-7.591,7.417l-7.957,7.775L79.005,91.012z M253.847,274.369l-4.996,5.113c-0.001,0.001-0.002,0.002-0.004,0.004L41.574,491.619 c-0.122,0.125-0.275,0.282-1.041,0.282c-5.527,0-16.271-8.193-19.684-16.573c-0.453-1.111-1.394-3.802-0.371-4.803 l227.675-222.461l14.838-14.499c0.001-0.001,0.001-0.001,0.001-0.001l158.092-154.47c2.604-2.544,3.619-6.302,2.651-9.811 c-2.618-9.494,0.075-19.709,7.027-26.662c9.443-9.442,30.932-22.52,46.719-22.52c4.752,0,8.281,1.219,10.789,3.727 c6.492,6.492,3.067,19.395,0.448,26.509c-4.705,12.782-13.272,25.027-19.241,30.996c-5.169,5.17-12.042,8.016-19.353,8.016h-0.001 c-2.475,0-4.935-0.332-7.311-0.987c-3.506-0.965-7.265,0.049-9.809,2.652L253.847,274.369z M491.161,475.326 c-3.414,8.38-14.16,16.574-19.687,16.574c-0.764,0-0.916-0.155-1.038-0.28L269.983,286.47l1.732-1.772l14.475-14.812 l205.342,200.639C492.555,471.525,491.613,474.215,491.161,475.326z"/> </g> </g><g> <g> <path d="M198.401,96.261l-36.502-35.668c-3.952-3.861-10.283-3.786-14.142,0.164s-3.787,10.281,0.163,14.141l36.503,35.667 c1.945,1.901,4.468,2.848,6.988,2.848c2.599,0,5.194-1.006,7.153-3.011C202.423,106.452,202.351,100.121,198.401,96.261z"/> </g> </g><g> <g> <path d="M219.114,116.507l-0.169-0.165c-3.952-3.861-10.284-3.784-14.142,0.165c-3.859,3.951-3.785,10.282,0.165,14.141 l0.17,0.165c1.945,1.9,4.468,2.847,6.987,2.847c2.599,0,5.195-1.007,7.154-3.012C223.137,126.696,223.064,120.366,219.114,116.507 z"/> </g> </g><g> <g> <path d="M421.05,186.587c-3.835-3.971-10.166-4.081-14.139-0.246l-0.171,0.165c-3.974,3.836-4.084,10.167-0.247,14.14 c1.962,2.032,4.576,3.053,7.194,3.053c2.501,0,5.005-0.933,6.945-2.807l0.171-0.165 C424.777,196.89,424.887,190.559,421.05,186.587z"/> </g> </g><g> <g> <path d="M400.294,206.792c-3.857-3.949-10.189-4.023-14.141-0.163l-36.503,35.668c-3.949,3.86-4.022,10.191-0.163,14.141 c1.959,2.005,4.555,3.011,7.153,3.011c2.52,0,5.043-0.947,6.988-2.848l36.503-35.668 C404.08,217.073,404.153,210.742,400.294,206.792z"/> </g> </g></symbol><symbol id="drummer" viewBox="0 0 460 460"><title>drummer</title><g> <path d="M319.51,257.209v5.565c10.371,6.474,19.596,14.737,27.247,24.43c0-4.087,0-32.459,0-36.497 C345.363,251.051,329.045,254.932,319.51,257.209z"/> </g><path id="XMLID_832_" d="M162.127,140.538l57.933,34.752l-0.557,35.13h79.385l0,0l0.624-39.313l43.3-0.809 c2.582-0.049,5.107-0.763,7.332-2.075l48.957-28.868c7.129-4.203,9.5-13.391,5.297-20.519c-3.258-5.524-9.504-8.174-15.468-7.141 l-45.837-69.27c-1.312-1.968-3.938-2.686-6.08-1.564c-2.291,1.201-3.175,4.031-1.974,6.322l38.098,72.689l-34.822,20.533 c0,0-41.406,0.783-41.994,0.865l-75.703-1.014l-32.685-19.191l17.183-50.326c0.56-1.64,0.803-3.308,0.791-4.948l67.112-37.443 c2.062-1.16,2.976-3.724,2.019-5.944c-1.024-2.375-3.78-3.47-6.155-2.446l-73.435,31.664c-7.739-2.448-16.058,1.711-18.695,9.434 l-21.096,61.788C153.371,129.531,156.068,136.903,162.127,140.538z"/><circle id="XMLID_834_" cx="260.978" cy="98.071" r="31.058"/><path id="XMLID_839_" d="M113.781,424.237c-3.653,3.654-3.653,9.576,0,13.23c1.827,1.827,4.221,2.74,6.615,2.74 c2.394,0,4.789-0.914,6.615-2.741l40.839-40.843c-2.891-6.268-5.152-12.814-6.756-19.56L113.781,424.237z"/><g id="XMLID_5_"> <path id="XMLID_228_" d="M457.639,199.015l-30.013-1.642c-14.441-0.79-29.294,0.545-43.445,3.9c-0.001,0-0.003,0.001-0.004,0.001 v-4.222c0-4.927-3.808-8.961-8.635-9.328c-5.418-0.417-10.075,3.861-10.075,9.328v8.812c-15.082,3.721-28.902,8.284-45.138,17.982 l-13.12,7.837c-1.724-1.626-4.004-2.554-6.41-2.554h0h-99.847c-5.167,0-9.355,4.189-9.355,9.355s4.188,9.355,9.355,9.355h0v14.572 h-62.245v-14.572h0c5.167,0,9.355-4.189,9.355-9.355s-4.188-9.355-9.355-9.355H94.537v-81.772l69.052,17.037 c2.785,0.687,4.357-3.122,1.89-4.596l-25.805-15.414c-15.542-9.283-29.183-14.046-45.138-17.982v-6.941 c0-5.166-4.188-9.355-9.355-9.355c-5.167,0-9.355,4.189-9.355,9.355v2.351c-14.22-3.373-28.85-4.7-43.448-3.901l-30.013,1.642 c-2.864,0.157-3.256,4.259-0.465,4.948l73.926,18.24v86.389H38.862c-5.167,0-9.355,4.189-9.355,9.355s4.188,9.355,9.355,9.355 v47.858c-5.167,0-9.355,4.189-9.355,9.355c0,5.166,4.188,9.355,9.355,9.355h36.964V431.07c0,5.166,4.188,9.355,9.355,9.355 c5.167,0,9.355-4.189,9.355-9.355V314.409h44.172c5.167,0,9.355-4.189,9.355-9.355c0-5.166-4.188-9.355-9.355-9.355h0v-14.576 h21.768v49.473c3.135-14.967,9.391-28.661,18.71-41.316c18.627-25.295,49.634-42.384,84.584-42.384 c12.299,0,24.902,2.122,37.029,6.656h0v-5.711h0h0c4.357,0,8.175-3.051,9.125-7.315c0-0.001,0.001-0.002,0.001-0.003 l55.542-13.704v97.188c2.542,9.144,3.857,18.692,3.857,28.442c0,9.628-1.298,19.183-3.857,28.405l0,22.091 c0,5.167,4.189,9.355,9.355,9.355l0,0c5.182,0,9.355-4.203,9.355-9.355v-11.486c5.282,5.282,41.445,41.446,46.088,46.089 c3.654,3.654,9.577,3.653,13.231,0c3.653-3.654,3.653-9.577,0-13.231c-9.638-9.638-52.195-52.194-59.319-59.318V222.202 l73.926-18.24C460.892,203.275,460.493,199.171,457.639,199.015z"/> </g><path id="XMLID_931_" d="M263.771,265.606c-47.962,0-86.843,38.881-86.843,86.843c0,50.478,40.108,87.779,86.843,87.779 c48.028,0,87.084-39.028,86.837-87.311C350.855,304.712,311.874,265.606,263.771,265.606z M263.771,421.518 c-37.569,0-68.133-30.564-68.133-68.133s30.564-68.133,68.133-68.133c37.569,0,68.133,30.564,68.133,68.133 S301.34,421.518,263.771,421.518z"/></symbol><symbol id="tv" viewBox="0 0 512 512"><title>tv</title><path d="M480,42.667H32c-17.643,0-32,14.357-32,32v298.667c0,17.643,14.357,32,32,32h181.333v22.976l-119.083,19.84 c-5.803,0.96-9.728,6.464-8.768,12.267c0.875,5.227,5.397,8.917,10.517,8.917c0.576,0,1.152-0.043,1.749-0.149L224.853,448 h62.272l127.104,21.184c0.597,0.107,1.195,0.149,1.771,0.149c5.141,0,9.664-3.691,10.496-8.917 c0.981-5.803-2.965-11.307-8.768-12.267l-119.061-19.84v-22.976H480c17.643,0,32-14.357,32-32V74.667 C512,57.024,497.643,42.667,480,42.667z M277.333,426.667h-42.667v-21.333h42.667V426.667z M490.667,373.333 c0,5.888-4.779,10.667-10.667,10.667H32c-5.888,0-10.667-4.779-10.667-10.667V74.667C21.333,68.779,26.112,64,32,64h448 c5.888,0,10.667,4.779,10.667,10.667V373.333z"/><path d="M256,277.333c-11.776,0-21.333,9.557-21.333,21.333S244.224,320,256,320s21.333-9.557,21.333-21.333 S267.776,277.333,256,277.333z"/><path d="M188.117,220.117c-4.16,4.16-4.16,10.923,0,15.083c4.16,4.16,10.923,4.16,15.083,0c29.099-29.099,76.501-29.099,105.6,0 c2.091,2.069,4.821,3.115,7.552,3.115s5.44-1.024,7.531-3.115c4.16-4.16,4.16-10.923,0-15.083 C286.443,182.699,225.557,182.699,188.117,220.117z"/><path d="M157.952,189.952c-4.16,4.16-4.16,10.923,0,15.083c4.16,4.16,10.923,4.16,15.083,0c45.739-45.76,120.171-45.76,165.931,0 c2.091,2.069,4.821,3.115,7.552,3.115c2.731,0,5.461-1.045,7.531-3.115c4.16-4.16,4.16-10.923,0-15.083 C299.989,135.893,212.011,135.893,157.952,189.952z"/><path d="M218.283,250.304c-4.16,4.16-4.16,10.923,0,15.083c4.16,4.16,10.923,4.16,15.083,0c12.075-12.075,33.173-12.075,45.248,0 c2.091,2.069,4.821,3.115,7.552,3.115s5.461-1.045,7.531-3.115c4.16-4.16,4.16-10.923,0-15.083 C273.579,230.165,238.4,230.165,218.283,250.304z"/></symbol><symbol id="wifi" viewBox="0 0 512.001 512.001"><title>wifi</title><g> <g> <path d="M399.28,277.601c-0.171-5.904-2.792-11.536-7.191-15.454c-37.419-33.312-85.748-51.658-136.088-51.658 c-50.34,0-98.669,18.346-136.088,51.658c-4.398,3.916-7.019,9.548-7.19,15.451c-0.173,5.94,2.137,11.756,6.339,15.957 l41.123,41.123c8.001,7.999,20.553,8.545,29.2,1.267c18.55-15.62,42.209-24.221,66.616-24.22c24.409,0,48.067,8.603,66.617,24.22 c4.067,3.426,8.997,5.119,13.914,5.119c5.534-0.001,11.049-2.147,15.287-6.384l41.122-41.123 C397.141,289.356,399.452,283.541,399.28,277.601z M336.556,319.398l-0.004-0.002c-22.445-18.898-51.052-29.305-80.551-29.305 c-29.498,0-58.107,10.409-80.519,29.29l-41.183-41.075c33.453-29.78,76.674-46.181,121.703-46.181s88.25,16.401,121.642,46.133 L336.556,319.398z"/> </g> </g><g> <g> <path d="M288.191,383.008c-8.598-8.598-20.03-13.334-32.189-13.334s-23.592,4.736-32.19,13.333 c-17.748,17.751-17.748,46.63,0.001,64.379c8.874,8.874,20.533,13.311,32.189,13.311s23.314-4.436,32.188-13.311 c8.598-8.597,13.334-20.03,13.334-32.189C301.524,403.037,296.788,391.605,288.191,383.008z M272.892,432.09 c-9.312,9.314-24.468,9.314-33.782,0c-9.315-9.315-9.315-24.47,0-33.784c4.512-4.513,10.511-6.997,16.892-6.997 c6.38,0,12.379,2.485,16.891,6.997c0,0.001,0,0.001,0.001,0.001c4.512,4.512,6.996,10.511,6.996,16.892 C279.89,421.579,277.405,427.579,272.892,432.09z"/> </g> </g><g> <g> <path d="M505.147,149.718C365.44,18.499,146.563,18.498,6.854,149.717c-4.326,4.062-6.758,9.561-6.852,15.486 c-0.092,5.902,2.156,11.451,6.328,15.623l41.041,41.041c8.26,8.26,21.425,8.519,29.971,0.592 c48.605-45.098,112.053-69.935,178.659-69.935c66.604,0,130.053,24.837,178.658,69.935c4.16,3.862,9.416,5.781,14.668,5.781 c5.534,0,11.065-2.133,15.304-6.372l41.041-41.041c4.173-4.172,6.42-9.721,6.328-15.623 C511.905,159.28,509.473,153.78,505.147,149.718z M449.375,206.601c-52.619-48.824-121.293-75.711-193.373-75.711 c-72.081,0-140.755,26.888-193.332,75.679l-41.005-41.082c131.406-123.42,337.27-123.416,468.673,0.001l0.036,0.041 L449.375,206.601z"/> </g> </g></symbol><symbol id="wifi-1" viewBox="0 0 512 512"><title>wifi-1</title><g> <g> <path d="M10.667,0C4.779,0,0,4.779,0,10.667V96c0,5.888,4.779,10.667,10.667,10.667c217.621,0,394.667,177.045,394.667,394.667 c0,5.888,4.779,10.667,10.667,10.667h85.333c5.888,0,10.667-4.779,10.667-10.667C512,224.896,287.104,0,10.667,0z M426.539,490.667C420.928,269.76,242.24,91.072,21.333,85.461V21.44c256.213,5.632,463.595,213.013,469.227,469.227H426.539z"/> </g> </g><g> <g> <path d="M10.667,170.667C4.779,170.667,0,175.445,0,181.333v85.333c0,5.888,4.779,10.667,10.667,10.667 c123.52,0,224,100.48,224,224c0,5.888,4.779,10.667,10.667,10.667h85.333c5.888,0,10.667-4.779,10.667-10.667 C341.333,318.997,193.003,170.667,10.667,170.667z M255.765,490.667c-5.461-126.805-107.627-228.971-234.432-234.453v-64.043 c162.112,5.547,292.949,136.384,298.475,298.496H255.765z"/> </g> </g><g> <g> <path d="M74.667,362.667C33.493,362.667,0,396.16,0,437.333S33.493,512,74.667,512s74.667-33.493,74.667-74.667 S115.84,362.667,74.667,362.667z M74.667,490.667c-29.397,0-53.333-23.936-53.333-53.333S45.269,384,74.667,384 S128,407.936,128,437.333S104.064,490.667,74.667,490.667z"/> </g> </g></symbol><symbol id="diploma" viewBox="0 0 60 60"><title>diploma</title><path id="Shape" d="m58.669 10.118-27.99-10c-.4419711-.15600345-.9240289-.15600345-1.366 0l-27.983 10c-.79312091.2858868-1.32179815 1.038427-1.32179815 1.8815s.52867724 1.5956132 1.32179815 1.8815l13.67 4.884v6.235c0 3.888 13.465 4 15 4s15-.112 15-4v-6.235l3-1.065v2.3c0 1.1045695.8954305 2 2 2h2c1.1045695 0 2-.8954305 2-2v-3c-.0029839-.4630681-.1146467-.9189675-.326-1.331l5-1.788c.7931209-.2858868 1.3217981-1.038427 1.3217981-1.8815s-.5286772-1.5956132-1.3217981-1.8815zm-15.669 12.682c-3.809-1.734-11.835-1.8-13-1.8s-9.191.066-13 1.8v-8.712c.6-.77 5.316-2.088 13-2.088s12.4 1.318 13 2.088zm-13 4.2c-7.4 0-12.047-1.222-12.916-2 .869-.778 5.518-2 12.916-2s12.047 1.222 12.916 2c-.869.778-5.516 2-12.916 2zm18.469-11.595-3.469 1.237v-2.642c0-3.888-13.465-4-15-4s-15 .112-15 4v2.641l-13-4.641 28.014-10 19.986 7.142v5.042c-.6323143.2247022-1.1712592.6545205-1.531 1.221zm3.531 4.595h-2v-3c0-.5522847.4477153-1 1-1s1 .4477153 1 1zm0-5.856v-4.287l6 2.143z"/><path id="Shape" d="m57 31c-.0600315-.0001773-.1199516.0051787-.179.016-8.8726728 1.3794293-17.8419311 2.0429022-26.821 1.984-8.9790689.0589022-17.9483272-.6045707-26.821-1.984-.05914563-.0100897-.11900255-.01544-.179-.016-.7 0-3 .793-3 11s2.3 11 3 11c.06004793-.0012711.11990124-.0072899.179-.018 6.81770028-1.0799035 13.6994144-1.7072753 20.6-1.878l-1.952 4.682c-.2998992.7496857-.1175748 1.6062533.4616424 2.168815s1.4407385.7198238 2.1813576.398185l.765-.327.331.761c.3126556.7378909 1.0376093 1.2160686 1.839 1.213h.025c.8073899-.0062972 1.5312063-.4991084 1.833-1.248l1.737-4.158 1.731 4.142c.2991288.7559362 1.0260752 1.2555882 1.839 1.264h.03c.7959636.0032667 1.5169852-.4690182 1.832-1.2l.334-.767.753.323c.7438278.3283499 1.6125382.1719295 2.195116-.3952535.5825777-.5671831.7622009-1.4313941.453884-2.1837465l-1.914-4.59c6.2216086.2202879 12.4238858.8214132 18.572 1.8.0574962.0095142.1157284.0138649.174.013.7 0 3-.793 3-11s-2.3-11-3-11zm-23.8 3.97c.4152824 1.5269614.6571423 3.0958635.721 4.677-2.2674172-1.0543305-4.9267377-.8071562-6.961.647-.0511494-1.7957543-.2812886-3.5819291-.687-5.332 1.2113333.0253333 2.4536667.038 3.727.038 1.093 0 2.154-.012 3.2-.03zm-2.2 16.03c-2.7614237 0-5-2.2385763-5-5s2.2385763-5 5-5 5 2.2385763 5 5c-.0033061 2.7600532-2.2399468 4.9966939-5 5zm-28-17.5c.76621595 2.7654906 1.10347504 5.6321928 1 8.5.10347504 2.8678072-.23378405 5.7345094-1 8.5-.76621595-2.7654906-1.10347504-5.6321928-1-8.5-.10347504-2.8678072.23378405-5.7345094 1-8.5zm2.02 17.17c.547-1.586.98-4.24.98-8.67s-.433-7.084-.981-8.672c6.3545916.8776191 12.7525318 1.4060792 19.165 1.583.5997869 2.3136583.8744249 4.6995763.816 7.089 0 .145 0 .283-.006.422-1.2000273 1.9915849-1.3209621 4.4523451-.322 6.552l-.044.106c-6.5607744.16081-13.1072151.6923244-19.608 1.592zm22.387 7.33-.73-1.68c-.219556-.5044532-.80536-.7368087-1.311-.52l-1.683.744 2.345-5.622c.9627521.9755678 2.1909675 1.6467048 3.532 1.93zm9.227-2.2c-.50564-.2168087-1.091444.0155468-1.311.52l-.74 1.663-2.144-5.133c1.342076-.2834163 2.5713104-.9548878 3.535-1.931l2.34 5.6zm20.166-4.85c-6.4246827-.9887912-12.9030696-1.5898786-19.4-1.8l-.071-.172c1.2576047-2.6500536.718457-5.8041476-1.348-7.886-.0077336-2.0738531-.24722-4.1403459-.714-6.161 7.2107886-.1614607 14.4035315-.7901117 21.533-1.882.464.788 1.2 3.905 1.2 8.951s-.741 8.162-1.2 8.95z"/></symbol><symbol id="diploma-1" viewBox="0 0 479.995 479.995"><title>diploma-1</title><path d="M441.931,280.252c-1.1-0.29-2.252-0.326-3.368-0.104l-78.568,14.264v-38.4c0-4.418-3.582-8-8-8h-48 c-2.122,0-4.156,0.844-5.656,2.344l-29.656,29.656h-49.376l-29.656-29.656c-1.5-1.5-3.534-2.344-5.656-2.344h-48 c-4.418,0-8,3.582-8,8v38.056l-75.472-16.552c-2.984-0.875-6.026-1.535-9.104-1.976c-4.371-0.646-8.438,2.374-9.084,6.745 c-0.617,4.172,2.112,8.107,6.236,8.992l8,1.76c9.822,2.998,18.429,9.055,24.568,17.288c2.302,3.104,4.23,6.468,5.744,10.024 l-29.288-5.864c-2.343-0.99-4.799-1.689-7.312-2.08c-20.195-2.907-38.924,11.108-41.831,31.303 c-0.003,0.021-0.006,0.043-0.009,0.065c-3.421,24.159,13.354,46.531,37.504,50.016c2.507,0.356,5.036,0.535,7.568,0.536 c1.088,0,2.12-0.224,3.2-0.288v0.256l87-8l-37.6,40.264c-3.013,3.231-2.836,8.294,0.395,11.307 c1.488,1.388,3.45,2.157,5.485,2.149h24v24c0.001,4.418,3.583,7.999,8.002,7.998c2.121,0,4.154-0.843,5.654-2.342l77.656-77.656 h49.376l77.656,77.656c1.5,1.5,3.534,2.344,5.656,2.344c1.052,0.003,2.093-0.203,3.064-0.608 c2.989-1.239,4.937-4.157,4.936-7.392v-24h24c4.418,0.003,8.002-3.577,8.005-7.995c0.001-2.031-0.77-3.986-2.157-5.469 l-38.104-40.8l87.688,6.264c0.184,0,0.384,0,0.568,0c0.653,0.001,1.303-0.08,1.936-0.24c13.168-3.288,38.064-19.184,38.064-55.76 S455.099,283.54,441.931,280.252z M35.163,346.629C35.163,346.629,35.163,346.629,35.163,346.629 c0.274-1.903,1.902-3.317,3.824-3.321c0.182-0.002,0.364,0.011,0.544,0.04l2.104-14.784c7.471,1.955,12.289,9.202,11.2,16.848 c-0.813,5.748-6.132,9.749-11.88,8.936C37.224,353.816,34.63,350.36,35.163,346.629z M82.395,346.332 c-2.916,20.365-21.785,34.514-42.152,31.608h-0.032c-15.41-2.215-26.116-16.49-23.928-31.904 c1.185-8.262,7.153-15.038,15.2-17.256c-6.539,2.665-11.176,8.595-12.184,15.584c-1.769,12.479,6.9,24.034,19.376,25.824 c14.503,2.078,27.944-7.995,30.022-22.498c0.001-0.005,0.001-0.009,0.002-0.014c0.616-4.442,0.258-8.966-1.048-13.256 l15.128,3.024C82.917,340.412,82.789,343.387,82.395,346.332z M86.739,374.74c6.138-7.497,10.103-16.534,11.464-26.128 c2.397-16.706-1.864-33.685-11.864-47.28l41.656,9.08v33.6c0,4.418,3.582,8,8,8h31.72L152.139,368.7L86.739,374.74z M207.995,380.7l-64,64v-12.688c0-4.418-3.582-8-8-8h-13.6l37.272-39.936l1.064-0.064l-0.088-0.936l47.352-50.76V380.7z M207.995,308.7l-27.312,27.312h-36.688v-72h36.688l27.312,27.312V308.7z M263.995,312.012v64h-40v-80h40V312.012z M279.995,291.324l27.312-27.312h36.688v72h-36.688L279.995,308.7V291.324z M365.595,424.012h-13.6c-4.418,0-8,3.582-8,8V444.7 l-64-64v-48.384l47.488,50.896l-0.056,0.8l0.864,0.064L365.595,424.012z M439.092,375.924l-103.377-7.376l-15.44-16.536h31.72 c4.418,0,8-3.582,8-8v-33.328l79.488-14.448c5.424,1.984,24.512,10.976,24.512,39.776 C463.995,365.53,443.998,374.243,439.092,375.924z"/><path d="M69.467,79.596L69.467,79.596l66.528,22.176v74.24c-0.001,1.016,0.192,2.024,0.568,2.968 c0.736,1.832,18.984,45.032,103.432,45.032v-16c-66,0-84.672-27.688-88-33.824v-67.08l85.472,28.488 c1.64,0.555,3.416,0.555,5.056,0l37.472-12.488v6.4c-8.99,3.199-15.217,11.438-15.84,20.96l-16,80l15.68,3.136l12.16-60.92 c1.273,0.742,2.612,1.363,4,1.856v57.472h16V174.54c1.388-0.493,2.727-1.114,4-1.856l12.16,60.928l15.68-3.136l-16-80 c-0.611-9.534-6.84-17.789-15.84-20.992v-11.712l32-10.664v74.504c-1.527,1.968-3.266,3.763-5.184,5.352l10.4,12.192 c4.029-3.188,7.417-7.11,9.984-11.56c0.538-1.117,0.812-2.344,0.8-3.584v-82.24l66.528-22.176 c4.197-1.38,6.482-5.901,5.102-10.098c-0.794-2.415-2.687-4.308-5.102-5.102l-168-56c-1.64-0.552-3.416-0.552-5.056,0l-168,56 c-4.197,1.38-6.482,5.901-5.102,10.098C65.158,76.909,67.052,78.803,69.467,79.596z M287.995,160.012c-4.418,0-8-3.582-8-8 s3.582-8,8-8s8,3.582,8,8S292.413,160.012,287.995,160.012z M239.995,24.444l142.704,47.568l-87.312,29.104 c-0.626-1.644-1.776-3.036-3.272-3.96l-29.432-17.664c0.837-2.406,1.28-4.932,1.312-7.48c0-13.255-10.745-24-24-24 s-24,10.745-24,24s10.745,24,24,24c4.54-0.013,8.982-1.326,12.8-3.784l24.728,14.84l-37.528,12.512L97.291,72.012L239.995,24.444 z M247.995,72.012c0,4.418-3.582,8-8,8s-8-3.582-8-8s3.582-8,8-8S247.995,67.594,247.995,72.012z"/></symbol><symbol id="github" viewBox="0 0 512 512"><title>github</title><path d="m386 53c0 5.523438-4.476562 10-10 10s-10-4.476562-10-10 4.476562-10 10-10 10 4.476562 10 10zm0 0"/><path d="m256 106c-93.738281 0-170 76.261719-170 170 0 94.644531 76.878906 170 170 170 93.324219 0 170-75.488281 170-170 0-93.738281-76.261719-170-170-170zm-30.792969 316.820312c.507813-2.207031.78125-4.492187.792969-6.820312v-39.835938c-.023438-14.582031 5.058594-16.84375 10.875-25.726562 1.867188-2.851562 2.152344-6.457031.761719-9.570312-1.394531-3.109376-4.277344-5.296876-7.648438-5.796876-39.667969-5.921874-55.238281-26.371093-61.316406-42.480468-8.09375-21.460938-3.808594-48.222656 10.417969-65.09375 2.164062-2.542969 4.101562-7.113282 2.546875-11.6875-3.035157-9.167969-2.5625-23.8125-.671875-29.476563 8.617187 1.261719 16.667968 6.144531 25.839844 11.710938 5.308593 3.226562 9.082031 6.203125 15.503906 4.476562 11.222656-3.042969 22.558594-4.660156 33.691406-4.808593 11.136719.144531 22.472656 1.765624 33.710938 4.8125 6.382812 1.722656 10.28125-1.320313 15.484374-4.480469 9.175782-5.566407 17.226563-10.453125 25.84375-11.710938 1.890626 5.660157 2.363282 20.300781-.644531 29.394531-1.582031 4.652344.351563 9.226563 2.515625 11.769532 14.230469 16.867187 18.515625 43.632812 10.417969 65.09375-6.074219 16.109375-21.644531 36.558594-61.3125 42.476562-3.371094.503906-6.253906 2.691406-7.648437 5.800782-1.394532 3.113281-1.109376 6.71875.757812 9.570312 5.804688 8.863281 10.902344 11.125 10.878906 25.742188v39.875c.011719 2.304687.28125 4.574218.785156 6.765624-10.074218 2.101563-20.382812 3.179688-30.789062 3.179688s-20.71875-1.078125-30.792969-3.179688zm80.902344-5.402343c-.0625-.464844-.105469-.933594-.109375-1.417969v-39.804688c.019531-11.476562-2.503906-18.941406-5.628906-24.539062 30.347656-8.203125 51.976562-26.308594 61.667968-52.007812 10.238282-27.144532 5.59375-59.59375-11.449218-82.058594 3.105468-13.667969 3.015625-35.253906-4.425782-45.070313-3.328124-4.394531-7.976562-6.671875-13.117187-6.449219-15.636719.722657-27.6875 8.527344-40.8125 16.441407-12.011719-3.039063-24.144531-4.652344-36.113281-4.800781-.082032-.003907-.160156-.003907-.242188 0-11.972656.144531-24.113281 1.761718-36.113281 4.800781-13.023437-7.851563-25.109375-15.714844-40.816406-16.441407-5.117188-.234374-9.78125 2.054688-13.113281 6.449219-7.429688 9.800781-7.53125 31.335938-4.421876 45.0625-17.042968 22.464844-21.691406 54.921875-11.453124 82.066407 9.691406 25.699218 31.320312 43.804687 61.667968 52.003906-2.46875 4.421875-4.554687 10.015625-5.316406 17.816406-12.367188 4.324219-22.378906 1.472656-29.175781-9.980469-7.949219-13.371093-21.417969-24.15625-36.855469-22.824219-5.503906.476563-9.578125 5.324219-9.101562 10.824219.472656 5.503907 5.335937 9.585938 10.824218 9.105469 7.148438-.621094 14.199219 6.824219 17.9375 13.109375 10.6875 18.011719 28 24.441406 46.058594 20.578125v25.660156c-.003906.503906-.046875.992188-.113281 1.472656-59.199219-21.003906-99.886719-78.019531-99.886719-141.414062 0-82.710938 67.289062-150 150-150s150 67.289062 150 150c0 63.394531-40.6875 120.410156-99.890625 141.417969zm0 0"/><path d="m462 0h-412c-27.570312 0-50 22.429688-50 50v412c0 27.570312 22.429688 50 50 50h412c27.570312 0 50-22.429688 50-50v-412c0-27.570312-22.429688-50-50-50zm30 462c0 16.542969-13.457031 30-30 30h-412c-16.542969 0-30-13.457031-30-30v-412c0-16.542969 13.457031-30 30-30h412c16.542969 0 30 13.457031 30 30zm0 0"/><path d="m136 63h200c5.523438 0 10-4.476562 10-10s-4.476562-10-10-10h-200c-5.523438 0-10 4.476562-10 10s4.476562 10 10 10zm0 0"/></symbol><symbol id="github-1" viewBox="0 0 55.11 55.11"><title>github-1</title><path d="M18.549,29.909c-2.757,0-5,2.691-5,6s2.243,6,5,6s5-2.691,5-6S21.306,29.909,18.549,29.909z M18.549,39.909 c-1.654,0-3-1.794-3-4s1.346-4,3-4s3,1.794,3,4S20.204,39.909,18.549,39.909z"/><path d="M37.549,29.909c-2.757,0-5,2.691-5,6s2.243,6,5,6s5-2.691,5-6S40.306,29.909,37.549,29.909z M37.549,39.909 c-1.654,0-3-1.794-3-4s1.346-4,3-4s3,1.794,3,4S39.204,39.909,37.549,39.909z"/><path d="M39.075,24.909c-0.049,0-0.1,0-0.149,0.001c-0.926,0.016-1.853,0.054-2.78,0.091c-0.844,0.034-1.688,0.068-2.531,0.085 l-1.465,0.031c-2.543,0.053-5.178,0.107-7.751,0.097c-1.174-0.005-2.349-0.049-3.522-0.093c-1.598-0.06-3.248-0.124-4.886-0.083 c-2.273,0.055-4.185,0.781-5.685,2.159h0c-2.491,2.289-3.521,5.325-3.148,9.282c0.542,5.743,2.86,8.68,8.002,10.135 c4.323,1.223,8.665,1.333,12.322,1.281l1.218,0.006c0.411,0.003,0.822,0.007,1.233,0.007c0.507,0,1.014-0.005,1.521-0.021 c3.595-0.115,6.746-0.652,9.632-1.644c3.169-1.088,5.279-3.166,6.269-6.175c0.756-2.3,0.978-4.479,0.679-6.662 C47.547,29.856,44.45,24.909,39.075,24.909z M45.456,39.444c-0.795,2.417-2.437,4.022-5.019,4.908 c-2.695,0.925-5.654,1.428-9.046,1.536c-0.891,0.028-1.782,0.02-2.673,0.014l-1.249-0.007c-3.525,0.05-7.688-0.052-11.763-1.206 c-4.317-1.221-6.094-3.498-6.556-8.397C8.84,33,9.661,30.507,11.659,28.67c1.133-1.04,2.606-1.589,4.38-1.633 c1.576-0.036,3.196,0.023,4.762,0.082c1.196,0.045,2.393,0.09,3.589,0.095c2.608,0.012,5.247-0.044,7.802-0.098l1.463-0.03 c0.857-0.018,1.714-0.053,2.571-0.087c0.911-0.037,1.822-0.074,2.733-0.089c0.036-0.001,0.072-0.001,0.108-0.001 c4.13,0,6.607,4.022,6.984,6.771C46.31,35.554,46.114,37.44,45.456,39.444z"/><path d="M51.866,18.56c-0.595-0.819-0.867-1.301-0.782-2.176c0.177-1.843-0.075-3.698-0.319-5.491l-0.016-0.118 c-0.326-2.404-0.954-4.698-1.867-6.819l-0.325-0.754L47.08,3.516c-2.051,0.431-4.173,0.877-6.107,1.994 c-1.284,0.742-2.562,1.533-3.797,2.297c-0.827,0.512-1.654,1.024-2.486,1.523c-0.045,0.027-0.135,0.049-0.16,0.049c0,0,0,0,0,0 C30.057,8.598,25.412,8.59,20.72,9.356c-0.058,0.01-0.247-0.022-0.397-0.111c-0.516-0.309-1.019-0.641-1.521-0.972 c-0.583-0.385-1.167-0.769-1.767-1.12c-2.862-1.68-6.024-3.301-9.753-3.777L6.552,3.282L6.163,4.125 C6.09,4.279,6.028,4.412,5.977,4.55c-1.07,2.884-1.715,5.908-1.924,9.085c-0.073,1.101-0.148,2.24,0.014,3.377 c0.054,0.377,0.009,0.453-0.138,0.637c-1.347,1.679-2.31,3.435-2.945,5.368c-1.067,3.246-1.26,6.845-0.609,11.324 c0.54,3.747,1.459,6.481,2.977,8.863c3.193,5.008,8.122,7.829,14.651,8.385c3.263,0.278,6.574,0.32,9.82,0.32 c0.698,0,1.393-0.002,2.084-0.004c0.911-0.003,1.823-0.005,2.732-0.003c4.18,0.002,7.514-0.542,10.545-1.729 c5.396-2.111,8.984-6.043,10.663-11.688c0.936-3.145,1.355-6.489,1.245-9.941C54.97,24.698,53.884,21.339,51.866,18.56z M51.931,37.915c-1.516,5.093-4.615,8.494-9.475,10.396c-2.79,1.093-5.87,1.61-9.812,1.591c-0.913-0.002-1.827,0-2.741,0.003 c-3.861,0.011-7.853,0.022-11.729-0.309c-5.958-0.507-10.255-2.95-13.135-7.467c-1.359-2.131-2.187-4.621-2.685-8.075 c-0.614-4.22-0.45-7.431,0.53-10.413c0.559-1.701,1.411-3.252,2.605-4.742c0.523-0.652,0.684-1.281,0.557-2.17 c-0.133-0.931-0.064-1.964,0.008-3.061c0.184-2.807,0.761-5.565,1.714-8.197c3.065,0.542,5.773,1.949,8.253,3.405 c0.57,0.334,1.124,0.7,1.677,1.064c0.527,0.348,1.055,0.695,1.597,1.019c0.54,0.322,1.192,0.46,1.747,0.368 c4.468-0.729,8.89-0.723,13.146,0.021c0.49,0.083,1.075-0.033,1.528-0.304c0.841-0.505,1.675-1.021,2.51-1.538 c1.242-0.769,2.483-1.537,3.746-2.266c1.619-0.935,3.446-1.332,5.381-1.74c0.675,1.74,1.149,3.601,1.413,5.541l0.016,0.118 c0.228,1.681,0.464,3.419,0.309,5.03c-0.154,1.594,0.459,2.586,1.155,3.544c1.803,2.483,2.734,5.386,2.846,8.872 C53.197,31.845,52.806,34.977,51.931,37.915z"/></symbol><symbol id="facebook" viewBox="0 0 512 512"><title>facebook</title><path d="m426.578125 75.421875h-67.320313c-52.402343 0-95.035156 42.632813-95.035156 95.035156v56.816407h-53.273437c-5.519531 0-10 4.476562-10 10v76.9375c0 5.523437 4.480469 10 10 10h53.273437v167.789062h-234.222656c-5.515625 0-10-4.484375-10-10v-452c0-5.515625 4.484375-10 10-10h20c5.523438 0 10-4.476562 10-10s-4.476562-10-10-10h-20c-16.542969 0-30 13.457031-30 30v452c0 16.542969 13.457031 30 30 30h244.222656c5.523438 0 10-4.476562 10-10v-187.789062c0-5.523438-4.476562-10-10-10h-53.269531v-56.941407h53.269531c5.523438 0 10-4.476562 10-10v-66.8125c0-41.375 33.660156-75.039062 75.039063-75.039062h57.320312v56.9375h-57.320312c-9.8125 0-18.101563 8.289062-18.101563 18.101562v66.8125c0 5.523438 4.476563 10 10 10h64.019532l-7.492188 56.941407h-56.527344c-5.519531 0-10 4.476562-10 10v187.789062c0 5.523438 4.480469 10 10 10h30.839844c5.523438 0 10-4.476562 10-10s-4.476562-10-10-10h-20.839844v-167.789062h55.296875c5.019531 0 9.261719-3.722657 9.914063-8.695313l10.125-76.941406c.375-2.851563-.496094-5.730469-2.394532-7.894531-1.898437-2.167969-4.640624-3.40625-7.519531-3.40625h-65.417969v-54.914063h65.417969c5.523438 0 10-4.476563 10-10v-76.9375c-.003906-5.523437-4.480469-10-10.003906-10zm0 0"/><path d="m482 0h-352c-5.523438 0-10 4.476562-10 10s4.476562 10 10 10h352c5.515625 0 10 4.484375 10 10v452c0 5.515625-4.484375 10-10 10h-20c-5.523438 0-10 4.476562-10 10s4.476562 10 10 10h20c16.542969 0 30-13.457031 30-30v-452c0-16.542969-13.457031-30-30-30zm0 0"/><path d="m422.003906 492h-.007812c-5.523438 0-9.996094 4.476562-9.996094 10s4.480469 10 10.003906 10c5.523438 0 10-4.476562 10-10s-4.476562-10-10-10zm0 0"/><path d="m90.003906 20c5.523438 0 10-4.476562 10-10s-4.476562-10-10-10h-.007812c-5.523438 0-9.996094 4.476562-9.996094 10s4.480469 10 10.003906 10zm0 0"/></symbol><symbol id="email-1" viewBox="0 0 512 512"><title>email-1</title><g> <g> <path d="M437.019,74.981C388.667,26.628,324.38,0,256,0S123.333,26.628,74.981,74.981C26.628,123.333,0,187.62,0,256 s26.628,132.667,74.981,181.019C123.333,485.372,187.62,512,256,512c53.072,0,103.984-16.096,147.229-46.549 c5.026-3.539,6.232-10.483,2.692-15.509s-10.483-6.232-15.509-2.692C350.938,475.047,304.46,489.739,256,489.739 C127.116,489.739,22.261,384.884,22.261,256S127.116,22.261,256,22.261S489.739,127.116,489.739,256 c0,24.549-19.972,44.522-44.522,44.522c-24.549,0-44.522-19.972-44.522-44.522c0-79.785-64.91-144.696-144.696-144.696 S111.304,176.215,111.304,256S176.215,400.696,256,400.696c64.819,0,119.82-42.842,138.174-101.698 c12.26,14.531,30.588,23.785,51.043,23.785C482.041,322.783,512,292.824,512,256C512,187.62,485.372,123.333,437.019,74.981z M256,378.435c-67.51,0-122.435-54.924-122.435-122.435c0-67.51,54.924-122.435,122.435-122.435 c67.511,0,122.435,54.924,122.435,122.435C378.435,323.511,323.511,378.435,256,378.435z"/> </g> </g><g> <g> <path d="M432.177,426.518c-4.193-4.496-11.261-4.715-15.755-0.521c-4.494,4.195-4.737,11.237-0.542,15.732 c2.193,2.349,5.161,3.536,8.14,3.536c2.72,0,5.447-0.992,7.592-2.993c0.017-0.016,0.05-0.047,0.075-0.07 C436.154,438.005,436.364,431.003,432.177,426.518z"/> </g> </g></symbol><symbol id="email" viewBox="0 0 511.974 511.974"><title>email</title><path d="M511.872,195.725c-0.053-0.588-0.17-1.169-0.35-1.732c-0.117-0.503-0.28-0.994-0.486-1.468 c-0.239-0.463-0.525-0.901-0.853-1.306c-0.329-0.481-0.71-0.924-1.135-1.323c-0.137-0.119-0.196-0.282-0.341-0.401 l-82.065-63.735V59.704c0-14.138-11.462-25.6-25.6-25.6h-92.476L271.539,5.355c-9.147-7.134-21.974-7.134-31.121,0 l-37.035,28.749h-92.476c-14.138,0-25.6,11.461-25.6,25.6v66.057L3.268,189.496c-0.145,0.12-0.205,0.282-0.341,0.401 c-0.425,0.398-0.806,0.842-1.135,1.323c-0.328,0.405-0.614,0.842-0.853,1.306c-0.207,0.473-0.369,0.965-0.486,1.468 c-0.178,0.555-0.295,1.127-0.35,1.707c0,0.179-0.102,0.333-0.102,0.512V486.37c0.012,5.428,1.768,10.708,5.009,15.061 c0.051,0.077,0.06,0.171,0.119,0.239c0.06,0.068,0.188,0.145,0.273,0.239c4.794,6.308,12.25,10.027,20.173,10.061h460.8 c7.954-0.024,15.441-3.761,20.241-10.103c0.068-0.085,0.171-0.111,0.23-0.196c0.06-0.085,0.068-0.162,0.12-0.239 c3.241-4.354,4.997-9.634,5.009-15.061V196.237C511.974,196.058,511.881,195.904,511.872,195.725z M250.854,18.82 c2.98-2.368,7.2-2.368,10.18,0l19.686,15.283h-49.493L250.854,18.82z M27.725,494.904l223.13-173.321 c2.982-2.364,7.199-2.364,10.18,0l223.189,173.321H27.725z M494.908,481.6L271.539,308.117c-9.149-7.128-21.972-7.128-31.121,0 L17.041,481.6V209.233L156.877,317.82c3.726,2.889,9.088,2.211,11.977-1.515c2.889-3.726,2.211-9.088-1.515-11.977 L25.276,194.018l60.032-46.652v65.937c0,4.713,3.821,8.533,8.533,8.533c4.713,0,8.533-3.821,8.533-8.533v-153.6 c0-4.713,3.82-8.533,8.533-8.533h290.133c4.713,0,8.533,3.82,8.533,8.533v153.6c0,4.713,3.82,8.533,8.533,8.533 s8.533-3.821,8.533-8.533v-65.937l60.032,46.652l-142.31,110.507c-2.448,1.855-3.711,4.883-3.305,7.928s2.417,5.637,5.266,6.786 c2.849,1.149,6.096,0.679,8.501-1.232l140.083-108.774V481.6z"/><path d="M358.374,204.77v-34.133c0-56.554-45.846-102.4-102.4-102.4c-56.554,0-102.4,45.846-102.4,102.4 s45.846,102.4,102.4,102.4c4.713,0,8.533-3.82,8.533-8.533s-3.82-8.533-8.533-8.533c-47.128,0-85.333-38.205-85.333-85.333 s38.205-85.333,85.333-85.333s85.333,38.205,85.333,85.333v34.133c0,9.426-7.641,17.067-17.067,17.067 s-17.067-7.641-17.067-17.067v-34.133c0-4.713-3.82-8.533-8.533-8.533s-8.533,3.82-8.533,8.533 c0,18.851-15.282,34.133-34.133,34.133c-18.851,0-34.133-15.282-34.133-34.133s15.282-34.133,34.133-34.133 c4.713,0,8.533-3.82,8.533-8.533s-3.82-8.533-8.533-8.533c-22.915-0.051-43.074,15.13-49.354,37.168 c-6.28,22.038,2.847,45.565,22.347,57.601c19.5,12.036,44.622,9.65,61.507-5.843c1.858,18.046,17.543,31.464,35.659,30.505 C344.25,237.91,358.431,222.912,358.374,204.77z"/></symbol><symbol id="phone-2" viewBox="0 0 74 74"><title>phone-2</title><path d="M24.36,51.74a1,1,0,0,1-.728-.313c-.112-.119-.229-.234-.344-.347L23.1,50.9c-.527-.527-1.044-1.054-1.55-1.59a1,1,0,1,1,1.454-1.373c.493.523,1,1.036,1.51,1.549l.172.17c.134.131.269.264.4.4a1,1,0,0,1-.727,1.686Z"/><path d="M58.97,72c-7.449,0-18.993-6.034-30.127-15.747a1,1,0,1,1,1.314-1.506C40.943,64.155,51.984,70,58.97,70a6.677,6.677,0,0,0,4.9-1.667l5.69-5.7A1.471,1.471,0,0,0,70,61.583a1.445,1.445,0,0,0-.431-1.032L56.853,47.827a1.518,1.518,0,0,0-2.1,0l-4.239,4.249c-3.73,3.694-13.088-1.673-20-8.589s-12.282-16.272-8.6-19.99l4.265-4.255a1.482,1.482,0,0,0,0-2.1L13.453,4.438A1.446,1.446,0,0,0,12.417,4h0a1.468,1.468,0,0,0-1.046.435l-5.7,5.692c-3.72,3.729-1.106,13.467,6.66,24.806a1,1,0,1,1-1.65,1.13C2.211,23.708-.25,13.227,4.252,8.714l5.7-5.691A3.457,3.457,0,0,1,12.414,2h.009a3.436,3.436,0,0,1,2.448,1.025l12.716,12.7a3.483,3.483,0,0,1,0,4.925L23.336,24.9c-2.022,2.044,1.013,9.6,8.591,17.175s15.132,10.615,17.17,8.6l4.245-4.255a3.561,3.561,0,0,1,4.925,0l12.711,12.72a3.468,3.468,0,0,1,0,4.914l-5.687,5.7A8.582,8.582,0,0,1,58.97,72Z"/><path d="M17.581,44.42a1,1,0,0,1-.757-.345c-.737-.851-1.337-1.574-1.89-2.277a1,1,0,1,1,1.572-1.236c.533.677,1.114,1.377,1.83,2.2a1,1,0,0,1-.755,1.655Z"/><path d="M22.625,25.2a.993.993,0,0,1-.707-.293L5.7,8.686A1,1,0,0,1,7.113,7.271L23.332,23.49a1,1,0,0,1-.707,1.707Z"/><path d="M66.021,68.594a1,1,0,0,1-.707-.293L49.1,52.082a1,1,0,0,1,1.414-1.414L66.729,66.887a1,1,0,0,1-.708,1.707Z"/><path d="M53.5,39A17.776,17.776,0,0,1,36,21,17.776,17.776,0,0,1,53.5,3,17.776,17.776,0,0,1,71,21,17.776,17.776,0,0,1,53.5,39Zm0-34A15.774,15.774,0,0,0,38,21,15.774,15.774,0,0,0,53.5,37,15.774,15.774,0,0,0,69,21,15.774,15.774,0,0,0,53.5,5Z"/><path d="M67,31.76a1,1,0,0,1-.827-.437,15.22,15.22,0,0,0-25.348,0A1,1,0,1,1,39.174,30.2a17.219,17.219,0,0,1,28.652,0,1,1,0,0,1-.263,1.39A.99.99,0,0,1,67,31.76Z"/><path d="M53.5,24.53A6.53,6.53,0,1,1,60.03,18,6.537,6.537,0,0,1,53.5,24.53Zm0-11.06A4.53,4.53,0,1,0,58.03,18,4.535,4.535,0,0,0,53.5,13.47Z"/></symbol><symbol id="phone" viewBox="0 0 512 512"><title>phone</title><g><path d="m36.2 266.19c-4.173 0-8.008-2.713-9.405-6.641-1.377-3.872-.211-8.328 2.936-10.991 3.282-2.777 8.094-3.122 11.746-.864 3.503 2.166 5.34 6.406 4.533 10.445-.921 4.61-5.107 8.051-9.81 8.051z"/></g><g><g><path d="m339.793 387.128h-157.788c-5.523 0-10-4.478-10-10s4.477-10 10-10h157.788c5.523 0 10 4.478 10 10s-4.478 10-10 10z"/></g></g><g><g><path d="m312.78 434.617h-103.762c-5.523 0-10-4.478-10-10s4.477-10 10-10h103.762c5.523 0 10 4.478 10 10 0 5.523-4.477 10-10 10z"/></g></g><g><path d="m321.775 325.975c-7.818 0-16.889-1.83-27.586-6.293-4.487-1.873-10.54-5.783-18.506-11.954-.206-.159-.406-.327-.599-.503l-12.881-11.699c-.116-.104-.229-.213-.34-.323l-94.054-93.835c-.11-.11-.219-.224-.324-.339l-11.726-12.851c-.176-.192-.345-.393-.505-.599-6.188-7.95-10.108-13.992-11.985-18.471-13.795-32.912-2.527-50.447 10.315-63.26l15.558-15.521c15.575-15.536 40.915-15.536 56.489 0l16.142 16.104c7.339 7.321 11.38 17.058 11.38 27.416 0 10.357-4.042 20.094-11.381 27.415l-9.378 9.357c11.412 34.596 25.574 48.716 60.271 60.102l9.397-9.375c15.135-15.101 39.761-15.1 54.895 0l16.141 16.104c7.552 7.534 11.711 17.553 11.711 28.211 0 10.659-4.159 20.678-11.71 28.212l-15.558 15.522c-8.669 8.647-19.497 16.578-35.766 16.58zm-33.538-33.822c8.577 6.62 12.4 8.547 13.654 9.07 23.161 9.662 32.508 3.006 41.522-5.987l15.558-15.521c3.764-3.755 5.836-8.746 5.836-14.054 0-5.307-2.073-10.298-5.836-14.053l-16.141-16.104c-7.346-7.328-19.297-7.328-26.643 0l-13.683 13.651c-2.606 2.601-6.429 3.557-9.954 2.494-47.125-14.23-66.83-33.891-81.094-80.912-1.072-3.535-.108-7.374 2.506-9.982l13.683-13.651c3.551-3.543 5.507-8.251 5.507-13.258 0-5.006-1.955-9.714-5.506-13.257l-16.142-16.104c-7.785-7.767-20.453-7.767-28.237 0l-15.558 15.521c-9.003 8.983-15.668 18.294-5.996 41.37.523 1.248 2.453 5.059 9.085 13.613l11.301 12.384 93.723 93.504z"/></g><path d="m485.798 78.074c0-14.871-12.098-26.969-26.969-26.969h-23.76v-41.105c0-5.523-4.477-10-10-10h-356.948c-23.114 0-41.919 18.805-41.919 41.919v168.875c0 5.523 4.477 10 10 10s10-4.477 10-10v-168.875c0-12.086 9.833-21.919 21.919-21.919h17.586v472h-17.586c-12.086 0-21.919-9.833-21.919-21.919v-168.875c0-5.522-4.477-10-10-10s-10 4.478-10 10v168.875c0 23.114 18.805 41.919 41.919 41.919h356.948c5.523 0 10-4.478 10-10v-116.297h23.76c14.871 0 26.969-12.098 26.969-26.969v-44.7c0-6.428-2.261-12.338-6.029-16.977 3.768-4.638 6.029-10.548 6.029-16.976v-44.7c0-6.428-2.261-12.337-6.029-16.976 3.768-4.639 6.029-10.549 6.029-16.977v-44.7c0-6.428-2.261-12.337-6.028-16.976 3.768-4.639 6.028-10.548 6.028-16.976zm-26.969-6.969c3.843 0 6.969 3.126 6.969 6.969v44.701c0 3.843-3.126 6.969-6.969 6.969h-23.76v-58.639zm6.969 208.976c0 3.843-3.126 6.969-6.969 6.969h-23.76v-58.638h23.76c3.843 0 6.969 3.126 6.969 6.969zm0-78.653c0 3.843-3.126 6.97-6.969 6.97h-23.76v-58.639h23.76c3.843 0 6.969 3.126 6.969 6.969zm-50.729 290.572h-309.362v-472h309.362zm50.729-133.266c0 3.843-3.126 6.969-6.969 6.969h-23.76v-58.639h23.76c3.843 0 6.969 3.127 6.969 6.97z"/></symbol><symbol id="phone-1" viewBox="0 0 512.076 512.076"><title>phone-1</title><g transform="translate(-1 -1)"> <g> <g> <path d="M499.639,396.039l-103.646-69.12c-13.153-8.701-30.784-5.838-40.508,6.579l-30.191,38.818 c-3.88,5.116-10.933,6.6-16.546,3.482l-5.743-3.166c-19.038-10.377-42.726-23.296-90.453-71.04s-60.672-71.45-71.049-90.453 l-3.149-5.743c-3.161-5.612-1.705-12.695,3.413-16.606l38.792-30.182c12.412-9.725,15.279-27.351,6.588-40.508l-69.12-103.646 C109.12,1.056,91.25-2.966,77.461,5.323L34.12,31.358C20.502,39.364,10.511,52.33,6.242,67.539 c-15.607,56.866-3.866,155.008,140.706,299.597c115.004,114.995,200.619,145.92,259.465,145.92 c13.543,0.058,27.033-1.704,40.107-5.239c15.212-4.264,28.18-14.256,36.181-27.878l26.061-43.315 C517.063,422.832,513.043,404.951,499.639,396.039z M494.058,427.868l-26.001,43.341c-5.745,9.832-15.072,17.061-26.027,20.173 c-52.497,14.413-144.213,2.475-283.008-136.32S8.29,124.559,22.703,72.054c3.116-10.968,10.354-20.307,20.198-26.061 l43.341-26.001c5.983-3.6,13.739-1.855,17.604,3.959l37.547,56.371l31.514,47.266c3.774,5.707,2.534,13.356-2.85,17.579 l-38.801,30.182c-11.808,9.029-15.18,25.366-7.91,38.332l3.081,5.598c10.906,20.002,24.465,44.885,73.967,94.379 c49.502,49.493,74.377,63.053,94.37,73.958l5.606,3.089c12.965,7.269,29.303,3.898,38.332-7.91l30.182-38.801 c4.224-5.381,11.87-6.62,17.579-2.85l103.637,69.12C495.918,414.126,497.663,421.886,494.058,427.868z"/> <path d="M291.161,86.39c80.081,0.089,144.977,64.986,145.067,145.067c0,4.713,3.82,8.533,8.533,8.533s8.533-3.82,8.533-8.533 c-0.099-89.503-72.63-162.035-162.133-162.133c-4.713,0-8.533,3.82-8.533,8.533S286.448,86.39,291.161,86.39z"/> <path d="M291.161,137.59c51.816,0.061,93.806,42.051,93.867,93.867c0,4.713,3.821,8.533,8.533,8.533 c4.713,0,8.533-3.82,8.533-8.533c-0.071-61.238-49.696-110.863-110.933-110.933c-4.713,0-8.533,3.82-8.533,8.533 S286.448,137.59,291.161,137.59z"/> <path d="M291.161,188.79c23.552,0.028,42.638,19.114,42.667,42.667c0,4.713,3.821,8.533,8.533,8.533s8.533-3.82,8.533-8.533 c-0.038-32.974-26.759-59.696-59.733-59.733c-4.713,0-8.533,3.82-8.533,8.533S286.448,188.79,291.161,188.79z"/> </g> </g> </g></symbol><symbol id="house-1" viewBox="0 0 512 512"><title>house-1</title><path d="M506.552,317.933c-9.739-14.312-29.351-18.1-43.707-8.452l-65.34,43.728l-0.19-136.11l22.7,21.265 c4.827,4.521,11.121,7.009,17.729,7.009c0.012,0,0.026,0,0.039,0c7.134-0.01,14.022-3,18.898-8.205 c4.737-5.057,7.222-11.655,6.996-18.581c-0.226-6.926-3.136-13.349-8.193-18.086l-43.035-40.314 c-2.946-2.76-7.571-2.609-10.33,0.337c-2.759,2.946-2.608,7.57,0.337,10.33l43.035,40.314c2.208,2.068,3.478,4.872,3.577,7.895 c0.098,3.023-0.986,5.904-3.055,8.111c-2.16,2.306-5.09,3.578-8.252,3.582c-0.006,0-0.011,0-0.017,0 c-2.883,0-5.63-1.086-7.737-3.06c-0.001-0.001-0.001-0.001-0.001-0.001L259.124,67.616c-2.816-2.637-7.198-2.633-10.007,0.014 L78.679,228.188c-2.201,2.074-5.079,3.16-8.103,3.076c-3.024-0.09-5.831-1.353-7.905-3.556c-2.074-2.201-3.167-5.079-3.076-8.102 c0.09-3.024,1.353-5.831,3.554-7.905L246.326,39.143c4.342-4.091,11.154-4.101,15.507-0.021L369,139.514 c2.945,2.759,7.57,2.609,10.33-0.337c2.759-2.946,2.608-7.57-0.337-10.33L271.827,28.455c-9.973-9.344-25.576-9.323-35.523,0.049 l-58.639,55.24l-0.016-9.853c-0.004-3.106-1.218-6.024-3.417-8.216c-2.195-2.189-5.109-3.394-8.209-3.394 c-0.006,0-0.011,0-0.017,0l-41.947,0.059c-3.106,0.004-6.023,1.218-8.216,3.417c-2.192,2.199-3.398,5.12-3.393,8.227l0.116,71.087 l-59.439,55.993c-5.044,4.751-7.935,11.182-8.142,18.108c-0.207,6.926,2.296,13.518,7.047,18.56 c4.75,5.044,11.181,7.936,18.108,8.143c0.265,0.008,0.53,0.012,0.795,0.012c6.635,0,12.918-2.49,17.767-7.06l22.649-21.336 l0.09,64.291c-7.328-1.067-14.742-1.627-22.19-1.627H76.746v-4.382c0-14.711-11.969-26.68-26.68-26.68H26.68 C11.969,249.092,0,261.06,0,275.772V390.29c0,4.036,3.272,7.308,7.308,7.308s7.308-3.272,7.308-7.308V275.772 c0-6.652,5.412-12.064,12.064-12.064h23.385c6.652,0,12.064,5.412,12.064,12.064v11.69v149.796v11.575 c0,6.652-5.412,12.064-12.064,12.064H26.68c-6.652,0-12.064-5.412-12.064-12.064v-12.788c0-4.036-3.272-7.308-7.308-7.308 S0,432.009,0,436.045v12.788c0,14.711,11.969,26.68,26.68,26.68h23.385c14.711,0,26.68-11.968,26.68-26.68v-0.993l107.024,40.528 c0.198,0.075,0.399,0.141,0.603,0.198c4.653,1.314,9.304,1.973,13.896,1.973c2.484,0,4.951-0.193,7.393-0.579l157.281-22.672 c0.037-0.005,0.073-0.011,0.11-0.017c13.372-2.135,25.987-7.788,36.48-16.346c0.091-0.074,0.181-0.151,0.268-0.23l101.611-91.388 C513.244,348.802,515.453,331.015,506.552,317.933z M163.037,76.902l0.034,20.59l-35.912,33.83l-0.089-54.371L163.037,76.902z M254.141,82.976l128.538,120.412l0.223,159.593l-20.691,13.848L340.3,375.6l-0.579-5.82 c-2.039-20.498-17.171-36.987-37.18-40.922l-0.132-94.945c-0.01-7.286-5.942-13.207-13.227-13.207c-0.006,0-0.011,0-0.018,0 l-69.654,0.098c-3.533,0.005-6.853,1.385-9.347,3.887c-2.495,2.501-3.866,5.825-3.861,9.357l0.116,82.781 c-13.797-3.154-26.971-8.363-39.288-15.568c-1.537-0.899-3.089-1.767-4.654-2.611c-0.61-0.329-1.23-0.638-1.845-0.959 c-0.952-0.497-1.902-0.997-2.864-1.474c-0.766-0.38-1.541-0.74-2.313-1.107c-0.819-0.389-1.637-0.782-2.462-1.157 c-0.84-0.381-1.687-0.744-2.533-1.11c-0.773-0.334-1.546-0.67-2.324-0.991c-0.87-0.359-1.745-0.704-2.621-1.047 c-0.777-0.304-1.555-0.606-2.336-0.898c-0.867-0.324-1.738-0.637-2.611-0.944c-0.819-0.289-1.639-0.571-2.463-0.846 c-0.836-0.279-1.674-0.552-2.516-0.817c-0.897-0.283-1.798-0.553-2.7-0.82c-0.775-0.228-1.549-0.456-2.328-0.672 c-1.017-0.283-2.039-0.548-3.062-0.81c-0.479-0.123-0.955-0.262-1.437-0.381l-0.113-80.878L254.141,82.976z M287.923,327.029 l-61.125-7.037l-5.759-0.663l-0.118-83.911l66.874-0.094L287.923,327.029z M491.673,348.41l-101.511,91.298 c-8.459,6.859-18.606,11.396-29.361,13.122l-157.213,22.662c-0.033,0.005-0.065,0.01-0.098,0.015l-0.109,0.017 c-4.763,0.754-9.723,0.436-14.744-0.942L76.746,432.21V294.77h12.505c10.645,0,21.218,1.229,31.514,3.616 c0.383,0.089,0.765,0.18,1.147,0.272c1.265,0.305,2.527,0.619,3.783,0.959c0.11,0.03,0.219,0.062,0.329,0.092 c1.259,0.344,2.513,0.707,3.763,1.086c0.224,0.068,0.449,0.135,0.672,0.204c1.33,0.411,2.654,0.84,3.971,1.29 c0.136,0.047,0.271,0.095,0.407,0.142c2.743,0.947,5.459,1.98,8.141,3.098c0.146,0.061,0.292,0.122,0.438,0.184 c1.337,0.562,2.666,1.143,3.986,1.747c0.035,0.016,0.071,0.033,0.106,0.05c1.276,0.586,2.543,1.194,3.802,1.819 c0.148,0.073,0.297,0.145,0.445,0.219c1.23,0.615,2.45,1.252,3.663,1.904c0.229,0.123,0.457,0.249,0.686,0.373 c1.224,0.667,2.441,1.347,3.646,2.052c17.391,10.173,36.323,16.762,56.271,19.585c0.063,0.009,0.125,0.017,0.188,0.024 l81.881,9.427c0.453,0.065,0.903,0.14,1.35,0.224c12.054,2.264,21.568,11.171,24.751,22.77c0.472,1.718,0.804,3.496,0.986,5.319 l0.325,3.27l-153.46-13.445c-4.018-0.351-7.566,2.622-7.918,6.642c-0.353,4.021,2.622,7.566,6.642,7.918l162.242,14.215 c0.039,0.003,0.077,0.002,0.115,0.005c0.038,0.003,0.075,0.009,0.114,0.012l30.597,1.717c0.137,0.008,0.273,0.011,0.409,0.011 c0.145,0,0.288-0.023,0.432-0.032c0.163-0.01,0.326-0.016,0.488-0.036c0.218-0.028,0.431-0.075,0.645-0.122 c0.153-0.034,0.307-0.059,0.457-0.103c0.234-0.067,0.459-0.158,0.686-0.249c0.122-0.049,0.248-0.086,0.368-0.142 c0.341-0.158,0.673-0.34,0.989-0.552l25.972-17.381c0.001-0.001,0.002-0.002,0.003-0.003l76.702-51.332 c7.717-5.187,18.251-3.152,23.482,4.536C499.249,333.181,498.062,342.736,491.673,348.41z"/></symbol><symbol id="house-2" viewBox="0 0 512.002 512.002"><title>house-2</title><g> <g> <path d="M502.001,492.002h-44v-79c0-5.523-4.478-10-10-10c-5.522,0-10,4.477-10,10v79h-120v-190c0-5.523-4.478-10-10-10h-104 c-5.522,0-10,4.477-10,10v190h-120V266.001h3.848c2.652,0,5.195-1.054,7.071-2.929L256.001,91.991l171.081,171.081 c1.876,1.875,4.419,2.929,7.071,2.929h3.848v75c0,5.523,4.478,10,10,10c5.522,0,10-4.477,10-10v-75h44 c4.045,0,7.691-2.437,9.239-6.173c1.548-3.736,0.691-8.038-2.168-10.898l-246-246c-3.906-3.905-10.236-3.905-14.143,0l-94,94 c-3.905,3.905-3.905,10.237,0,14.142c3.906,3.906,10.238,3.906,14.143,0l86.929-86.929l221.857,221.858h-39.563L263.072,70.778 c-3.906-3.905-10.236-3.905-14.143,0L73.706,246.001H34.143l78.929-78.928c3.905-3.905,3.905-10.237,0-14.143 c-3.905-3.904-10.237-3.905-14.143,0l-96,96c-2.859,2.86-3.716,7.161-2.168,10.898c1.548,3.737,5.195,6.173,9.24,6.173h44v226h-44 c-5.522,0-10,4.477-10,10s4.478,10,10,10h54h140h104h140h54c5.522,0,10-4.477,10-10S507.523,492.002,502.001,492.002z M298.001,492.002h-84v-180h84V492.002z"/> </g> </g><g> <g> <path d="M406.001,292.002h-56c-5.522,0-10,4.477-10,10v100c0,5.523,4.478,10,10,10h56c5.522,0,10-4.477,10-10v-100 C416.001,296.479,411.523,292.002,406.001,292.002z M396.001,392.002h-36v-80h36V392.002z"/> </g> </g><g> <g> <path d="M162.001,292.002h-56c-5.522,0-10,4.477-10,10v100c0,5.523,4.478,10,10,10h56c5.522,0,10-4.477,10-10v-100 C172.001,296.479,167.523,292.002,162.001,292.002z M152.001,392.002h-36v-80h36V392.002z"/> </g> </g><g> <g> <path d="M256.001,164.322c-25.364,0-46,20.636-46,46s20.636,46,46,46c25.364,0,46-20.636,46-46S281.365,164.322,256.001,164.322z M256.001,236.322c-14.337,0-26-11.664-26-26s11.663-26,26-26c14.337,0,26,11.664,26,26S270.338,236.322,256.001,236.322z"/> </g> </g><g> <g> <path d="M244.07,394.932c-1.859-1.86-4.44-2.93-7.069-2.93c-2.63,0-5.21,1.07-7.07,2.93c-1.86,1.86-2.93,4.44-2.93,7.07 s1.069,5.21,2.93,7.07c1.861,1.86,4.44,2.93,7.07,2.93s5.21-1.07,7.069-2.93c1.86-1.86,2.931-4.44,2.931-7.07 S245.931,396.792,244.07,394.932z"/> </g> </g><g> <g> <path d="M140.07,125.932c-1.859-1.86-4.439-2.93-7.069-2.93s-5.21,1.07-7.07,2.93c-1.86,1.86-2.93,4.44-2.93,7.07 s1.069,5.21,2.93,7.07c1.861,1.86,4.44,2.93,7.07,2.93s5.21-1.07,7.069-2.93c1.86-1.86,2.931-4.44,2.931-7.07 S141.931,127.792,140.07,125.932z"/> </g> </g><g> <g> <path d="M455.07,367.261c-1.859-1.859-4.44-2.93-7.069-2.93c-2.63,0-5.21,1.07-7.07,2.93c-1.86,1.87-2.93,4.44-2.93,7.07 s1.069,5.21,2.93,7.08c1.86,1.86,4.44,2.92,7.07,2.92s5.21-1.06,7.069-2.92c1.86-1.87,2.931-4.44,2.931-7.08 C458.001,371.701,456.931,369.121,455.07,367.261z"/> </g> </g></symbol><symbol id="house" viewBox="0 0 64 64"><title>house</title><path d="M62.707,31.293l-30-30a1,1,0,0,0-1.414,0l-30,30A1,1,0,0,0,2,33H7V57H6a1,1,0,0,0-1,1v4a1,1,0,0,0,1,1H58a1,1,0,0,0,1-1V58a1,1,0,0,0-1-1H57V33h5a1,1,0,0,0,.707-1.707ZM57,61H7V59H57ZM27,57H15V39H27Zm2,0V38a1,1,0,0,0-1-1H14a1,1,0,0,0-1,1V57H9V32.414l23-23,23,23V57ZM56.414,31,32.707,7.293a1,1,0,0,0-1.414,0L7.586,31H4.414L32,3.414,59.586,31Z"/><path d="M39,26a7,7,0,1,0-7,7A7.008,7.008,0,0,0,39,26ZM27,26a5,5,0,1,1,5,5A5.006,5.006,0,0,1,27,26Z"/><path d="M52,37H32a1,1,0,0,0-1,1V52a1,1,0,0,0,1,1H52a1,1,0,0,0,1-1V38A1,1,0,0,0,52,37Zm-1,7H43V39h8ZM41,39v5H33V39Zm-8,7h8v5H33Zm10,5V46h8v5Z"/><rect x="17" y="45" width="2" height="4"/></symbol><symbol id="desktop" viewBox="-38 0 569 569.286"><title>desktop</title><path d="m38.058594 341.402344h147.53125l-21.335938 56.898437h-21.878906v18.964844h208.632812v-18.964844h-21.878906l-21.335937-56.902343h147.53125c20.949219 0 37.933593-16.984376 37.933593-37.933594v-265.53125c0-20.949219-16.984374-37.933594-37.933593-37.933594h-417.265625c-20.953125 0-37.933594 16.984375-37.933594 37.933594v265.53125c0 20.953125 16.980469 37.9375 37.933594 37.9375zm270.8125 56.898437h-124.363282l21.339844-56.902343h81.6875zm165.417968-94.835937c0 10.476562-8.488281 18.96875-18.964843 18.96875h-417.265625c-10.476563 0-18.96875-8.492188-18.96875-18.96875v-18.964844h455.203125v18.964844zm-455.199218-265.53125c0-10.476563 8.492187-18.96875 18.96875-18.96875h417.265625c10.476562 0 18.964843 8.492187 18.964843 18.96875v227.597656h-455.199218zm0 0"/><path d="m47.542969 436.234375c-5.238281 0-9.484375 4.246094-9.484375 9.484375v113.796875c0 5.238281 4.246094 9.484375 9.484375 9.484375h265.53125c5.238281 0 9.484375-4.246094 9.484375-9.484375v-113.796875c0-5.238281-4.246094-9.484375-9.484375-9.484375zm256.046875 113.800781h-246.566406v-94.835937h246.566406zm0 0"/><path d="m75.992188 512.097656h18.964843v18.96875h-18.964843zm0 0"/><path d="m265.65625 512.097656h18.96875v18.96875h-18.96875zm0 0"/><path d="m75.992188 474.167969h18.964843v18.964843h-18.964843zm0 0"/><path d="m113.925781 474.167969h18.964844v18.964843h-18.964844zm0 0"/><path d="m151.859375 474.167969h18.964844v18.964843h-18.964844zm0 0"/><path d="m189.789062 474.167969h18.96875v18.964843h-18.96875zm0 0"/><path d="m227.722656 474.167969h18.96875v18.964843h-18.96875zm0 0"/><path d="m265.65625 474.167969h18.96875v18.964843h-18.96875zm0 0"/><path d="m113.925781 512.097656h132.765625v18.96875h-132.765625zm0 0"/><path d="m360.492188 483.648438v37.933593c0 26.1875 21.226562 47.417969 47.414062 47.417969s47.417969-21.230469 47.417969-47.417969v-37.933593c0-26.1875-21.230469-47.414063-47.417969-47.414063s-47.414062 21.226563-47.414062 47.414063zm75.867187 0v37.933593c0 15.714844-12.738281 28.449219-28.453125 28.449219-15.710938 0-28.449219-12.734375-28.449219-28.449219v-37.933593c.050781-12.011719 7.640625-22.699219 18.96875-26.703126v26.703126h18.964844v-26.703126c11.328125 4.003907 18.917969 14.691407 18.96875 26.703126zm0 0"/><path d="m300.816406 111.019531-94.828125 94.828125-13.414062-13.410156 94.832031-94.832031zm0 0"/><path d="m253.390625 101.539062-56.898437 56.898438-13.410157-13.414062 56.898438-56.898438zm0 0"/><path d="m310.296875 158.4375-56.898437 56.898438-13.410157-13.410157 56.894531-56.898437zm0 0"/></symbol><symbol id="desktop-1" viewBox="0 0 569 569.28603"><title>desktop-1</title><path d="m559.660156 265.535156h-28.449218v-66.386718c-.03125-26.171876-21.242188-47.382813-47.417969-47.414063h-113.800781c-26.175782.03125-47.382813 21.242187-47.414063 47.414063v66.386718h-116.457031l-12.640625-37.933594h81.679687c15.710938 0 28.449219-12.738281 28.449219-28.449218v-170.703125c0-15.710938-12.738281-28.449219-28.449219-28.449219h-246.566406c-15.714844 0-28.449219 12.738281-28.449219 28.449219v170.699219c0 15.714843 12.734375 28.449218 28.449219 28.449218h81.679688l-12.640626 37.933594h-88.007812c-5.234375 0-9.480469 4.246094-9.480469 9.484375v284.5c0 5.238281 4.246094 9.484375 9.480469 9.484375h37.933594c5.238281 0 9.484375-4.246094 9.484375-9.484375v-237.082031h265.53125v28.449218h-42.671875c-18.332032 0-33.191406 14.859376-33.191406 33.191407s14.859374 33.191406 33.191406 33.191406h109.058594v67.832031l-48.261719 8.035156c-20.945313.464844-37.546875 17.824219-37.078125 38.769532.46875 20.945312 17.828125 37.542968 38.769531 37.078125 16.976563-.378907 31.632813-11.992188 35.882813-28.433594h78.273437c4.34375 16.738281 19.4375 28.429687 36.730469 28.449219 6.988281-.015625 13.832031-1.988282 19.761718-5.6875 1.507813 3.453125 4.917969 5.6875 8.6875 5.6875h37.933594c5.234375 0 9.480469-4.242188 9.480469-9.480469v-284.5c.003906-5.234375-4.242187-9.480469-9.480469-9.480469zm-9.484375 18.964844v18.964844h-18.964843v-18.964844zm-104.316406 132.765625h37.933594c10.292969-.035156 20.289062-3.453125 28.449219-9.730469v90.878906c-5.492188-3.277343-11.730469-5.09375-18.121094-5.28125l-48.261719-8.03125zm-417.265625-398.300781h246.566406c5.238282 0 9.484375 4.246094 9.484375 9.484375v142.25h-265.535156v-142.25c0-5.238281 4.246094-9.484375 9.484375-9.484375zm-9.484375 180.183594v-9.480469h265.535156v9.480469c0 5.238281-4.246093 9.484374-9.484375 9.484374h-246.566406c-5.238281 0-9.484375-4.246093-9.484375-9.484374zm111.152344 28.449218h43.226562l12.640625 37.933594h-68.507812zm-92.1875 322.4375h-18.964844v-227.601562h18.964844zm9.484375-246.570312h-28.449219v-18.964844h303.464844v18.964844zm218.117187 80.609375c0-7.855469 6.371094-14.222657 14.226563-14.222657h52.15625c5.238281 0 9.484375-4.246093 9.484375-9.484374v-161.21875c0-15.710938 12.738281-28.449219 28.449219-28.449219h113.800781c15.710937 0 28.449219 12.738281 28.449219 28.449219v170.703124c0 15.710938-12.738282 28.449219-28.449219 28.449219h-203.890625c-7.855469 0-14.226563-6.371093-14.226563-14.226562zm227.601563 165.960937c-10.476563 0-18.96875-8.492187-18.96875-18.96875 0-5.238281-4.246094-9.484375-9.480469-9.484375h-94.835937c-5.238282 0-9.480469 4.246094-9.480469 9.484375 0 10.476563-8.492188 18.96875-18.96875 18.96875-10.472657 0-18.964844-8.492187-18.964844-18.96875 0-10.472656 8.492187-18.964844 18.964844-18.964844.523437.003907 1.042969-.042968 1.554687-.132812l56.902344-9.484375c4.570312-.761719 7.925781-4.714844 7.925781-9.351563v-75.867187h18.96875v75.867187c0 4.636719 3.355469 8.59375 7.925781 9.351563l56.902344 9.484375c.511719.089844 1.03125.136719 1.554688.132812 10.472656 0 18.964844 8.492188 18.964844 18.964844 0 10.476563-8.492188 18.96875-18.964844 18.96875zm56.898437 0h-18.964843v-227.601562h18.964843zm0 0"/><path d="m94.976562 569h94.832032c4.988281.011719 9.128906-3.835938 9.484375-8.808594l9.484375-132.765625c.371094-5.226562-3.5625-9.761719-8.785156-10.132812-.234376-.019531-.464844-.027344-.699219-.027344h-113.800781c-5.238282-.011719-9.492188 4.222656-9.507813 9.460937 0 .234376.007813.464844.027344.699219l9.480469 132.765625c.355468 4.972656 4.5 8.820313 9.484374 8.808594zm94.132813-132.765625-8.128906 113.800781h-77.175781l-8.125-113.800781zm0 0"/></symbol><symbol id="bag" viewBox="0 0 512.002 512.002"><title>bag</title><path d="m511.939 423.689-3.895-80.619c-.2-4.137-3.706-7.318-7.853-7.129-4.138.2-7.33 3.716-7.129 7.853l3.895 80.619c.503 10.406-3.182 20.295-10.376 27.845-6.513 6.835-15.085 10.887-24.392 11.614v-184.882c10.853-8.172 19.852-18.676 26.256-30.759l2.923 60.491c.194 4.014 3.509 7.138 7.485 7.138.122 0 .245-.003.368-.009 4.137-.2 7.329-3.716 7.129-7.853l-7.192-148.855v-22.463c0-12.407-10.093-22.5-22.5-22.5h-116.808v-5.421c0-15.164-4.492-29.809-12.99-42.352-2.323-3.429-6.986-4.326-10.416-2.002-3.429 2.323-4.325 6.987-2.002 10.416 6.809 10.049 10.408 21.785 10.408 33.938v5.421h-15.166v-5.421c0-25.168-20.505-45.644-45.709-45.644h-72.703c-25.284 0-45.854 20.541-45.854 45.789v5.277h-15.166v-5.277c0-33.582 27.374-60.902 61.02-60.902h72.703c9.488 0 18.581 2.127 27.025 6.323 3.71 1.842 8.21.329 10.054-3.38 1.843-3.709.33-8.21-3.38-10.054-10.537-5.235-21.875-7.889-33.699-7.889h-72.703c-41.917 0-76.02 34.05-76.02 75.902v5.277h-99.907c-12.407 0-22.5 10.093-22.5 22.5v22.462l-12.781 264.546c-.703 14.545 4.446 28.366 14.499 38.917 10.075 10.573 23.672 16.396 38.288 16.396h406.302c14.616 0 28.213-5.823 38.288-16.396 10.051-10.551 15.201-24.372 14.498-38.917zm-27.782-218.628c0 42.734-34.766 77.5-77.5 77.5h-17.647v-7.667c0-6.585-3.66-12.328-9.049-15.314v-92.757h104.197v38.238zm-360.566 103.526c-1.378 0-2.5-1.122-2.5-2.5v-31.193c0-1.378 1.122-2.5 2.5-2.5h33.292c1.378 0 2.5 1.122 2.5 2.5v31.193c0 1.378-1.122 2.5-2.5 2.5zm26.743-51.193h-20.193v-90.571h20.193zm-20.193 66.193h20.193v30.632c0 5.567-4.529 10.097-10.097 10.097-5.567 0-10.096-4.529-10.096-10.097zm35.193-64.008v-92.757h164.433v92.757c-5.39 2.986-9.05 8.729-9.05 15.314v7.667h-146.333v-7.667c0-6.585-3.66-12.328-9.05-15.314zm172.883 49.008c-1.378 0-2.5-1.122-2.5-2.5v-31.193c0-1.378 1.122-2.5 2.5-2.5h33.292c1.378 0 2.5 1.122 2.5 2.5v31.193c0 1.378-1.122 2.5-2.5 2.5zm26.743-51.193h-20.193v-90.571h20.193zm-20.193 66.193h20.193v30.632c0 5.567-4.529 10.097-10.097 10.097s-10.097-4.529-10.097-10.097v-30.632zm-164.35-214.684c0-16.977 13.841-30.789 30.854-30.789h72.703c16.933 0 30.709 13.747 30.709 30.644v5.421h-134.266zm-145.072 20.277h441.312c4.136 0 7.5 3.364 7.5 7.5v15.142c-113.421 0-276.108 0-389.603 0-4.142 0-7.5 3.358-7.5 7.5s3.358 7.5 7.5 7.5h20.587v92.757c-5.39 2.986-9.05 8.729-9.05 15.314v7.667h-.746c-42.734 0-77.5-34.766-77.5-77.5v-38.238h31.794c4.142 0 7.5-3.358 7.5-7.5s-3.358-7.5-7.5-7.5h-31.794v-15.142c0-4.135 3.365-7.5 7.5-7.5zm-20.299 295.232 8.512-176.182c6.404 12.083 15.403 22.587 26.256 30.76v109.203c0 4.142 3.358 7.5 7.5 7.5s7.5-3.358 7.5-7.5v-99.998c12.247 5.995 26.002 9.366 40.531 9.366h.746v8.526c0 6.586 3.66 12.328 9.05 15.314v32.818c0 13.838 11.258 25.097 25.096 25.097s25.097-11.258 25.097-25.097v-32.818c5.39-2.986 9.05-8.729 9.05-15.314v-8.526h146.333v8.526c0 6.586 3.66 12.328 9.05 15.314v32.818c0 13.838 11.258 25.097 25.097 25.097s25.097-11.258 25.097-25.097v-32.818c5.389-2.986 9.049-8.729 9.049-15.314v-8.526h17.647c14.529 0 28.285-3.371 40.531-9.366v175.807h-382.374v-40.745c0-4.142-3.358-7.5-7.5-7.5s-7.5 3.358-7.5 7.5v40.615c-9.307-.727-17.879-4.778-24.392-11.614-7.194-7.55-10.879-17.44-10.376-27.846z"/></symbol><symbol id="bag-1" viewBox="0 0 512 512"><title>bag-1</title><path d="m359.5 402h-207c-12.407 0-22.5 10.093-22.5 22.5v35c0 12.407 10.093 22.5 22.5 22.5h207c12.406 0 22.5-10.093 22.5-22.5v-35c0-12.407-10.094-22.5-22.5-22.5zm7.5 57.5c0 4.136-3.364 7.5-7.5 7.5h-207c-4.136 0-7.5-3.364-7.5-7.5v-35c0-4.136 3.364-7.5 7.5-7.5h207c4.136 0 7.5 3.364 7.5 7.5z"/><path d="m247.161 179.768c2.361 2.361 5.5 3.661 8.839 3.661s6.479-1.3 8.839-3.661l34.929-34.929h.001c4.872-4.874 4.872-12.803-.001-17.677l-34.929-34.928c-2.36-2.361-5.5-3.662-8.839-3.662s-6.478 1.3-8.839 3.661l-34.929 34.929c-4.874 4.874-4.874 12.804 0 17.678zm8.839-75.161 31.394 31.393-31.394 31.393-31.394-31.393z"/><path d="m337.5 432c-5.514 0-10 4.486-10 10s4.486 10 10 10 10-4.486 10-10-4.486-10-10-10z"/><path d="m287.5 432c-5.514 0-10 4.486-10 10s4.486 10 10 10 10-4.486 10-10-4.486-10-10-10z"/><path d="m237.5 432c-5.514 0-10 4.486-10 10s4.486 10 10 10 10-4.486 10-10-4.486-10-10-10z"/><path d="m187.5 432c-5.514 0-10 4.486-10 10s4.486 10 10 10 10-4.486 10-10-4.486-10-10-10z"/><path d="m429.5 242.5h-17.5v-8c0-14.299-5.691-27.682-15.782-37.524 9.73-9.535 15.782-22.809 15.782-37.476v-47c0-28.949-23.552-52.5-52.5-52.5h-33.5v-12.5c0-26.191-21.309-47.5-47.5-47.5h-45c-26.191 0-47.5 21.309-47.5 47.5v12.5h-33.5c-28.949 0-52.5 23.551-52.5 52.5v47c0 14.665 6.051 27.938 15.779 37.473-10.092 9.84-15.779 23.219-15.779 37.527v8h-17.5c-15.164 0-27.5 12.336-27.5 27.5v162c0 15.164 12.336 27.5 27.5 27.5h17.5c0 28.949 23.551 52.5 52.5 52.5h207c28.948 0 52.5-23.551 52.5-52.5h17.5c15.163 0 27.5-12.336 27.5-27.5v-162c0-15.164-12.337-27.5-27.5-27.5zm-228.5-195c0-17.92 14.58-32.5 32.5-32.5h45c17.921 0 32.5 14.58 32.5 32.5v12.5h-15v-7.5c0-12.407-10.094-22.5-22.5-22.5h-35c-12.407 0-22.5 10.093-22.5 22.5v7.5h-15zm80 12.5h-50v-7.5c0-4.136 3.364-7.5 7.5-7.5h35c4.136 0 7.5 3.364 7.5 7.5zm-166 99.5v-47c0-20.678 16.822-37.5 37.5-37.5h207c20.678 0 37.5 16.822 37.5 37.5v47c0 20.678-16.822 37.5-37.5 37.5h-7.5v-15c0-16.542-13.458-30-30-30s-30 13.458-30 30v15h-72v-15c0-16.542-13.458-30-30-30s-30 13.458-30 30v15h-7.5c-20.678 0-37.5-16.822-37.5-37.5zm252 111c0 20.678-16.822 37.5-37.5 37.5h-147c-20.678 0-37.5-16.822-37.5-37.5v-21c0-4.136 3.364-7.5 7.5-7.5h7.5v21c0 16.542 13.458 30 30 30s30-13.458 30-30v-21h72v21c0 16.542 13.458 30 30 30s30-13.458 30-30v-21h7.5c4.136 0 7.5 3.364 7.5 7.5zm-192-7.5v-81c0-8.271 6.729-15 15-15s15 6.729 15 15v81c0 8.271-6.729 15-15 15s-15-6.729-15-15zm117-36h-72v-15h72zm15 36v-81c0-8.271 6.729-15 15-15s15 6.729 15 15v81c0 8.271-6.729 15-15 15s-15-6.729-15-15zm90 196.5c0 20.678-16.822 37.5-37.5 37.5h-207c-20.678 0-37.5-16.822-37.5-37.5v-7.5c0-4.142-3.358-7.5-7.5-7.5h-25c-6.893 0-12.5-5.607-12.5-12.5v-162c0-6.893 5.607-12.5 12.5-12.5h17.5v159.5c0 4.142 3.358 7.5 7.5 7.5s7.5-3.358 7.5-7.5v-182.5c0-11.073 4.776-21.362 13.152-28.509 7.283 3.83 15.564 6.009 24.348 6.009h7.5v15h-7.5c-12.407 0-22.5 10.093-22.5 22.5v115c0 12.407 10.093 22.5 22.5 22.5h148c4.143 0 7.5-3.358 7.5-7.5s-3.357-7.5-7.5-7.5h-148c-4.136 0-7.5-3.364-7.5-7.5v-57.308c9.537 9.745 22.821 15.808 37.5 15.808h147c14.679 0 27.963-6.063 37.5-15.808v57.308c0 4.136-3.364 7.5-7.5 7.5h-24c-4.143 0-7.5 3.358-7.5 7.5s3.357 7.5 7.5 7.5h24c12.406 0 22.5-10.093 22.5-22.5v-115c0-12.407-10.094-22.5-22.5-22.5h-7.5v-15h7.5c8.784 0 17.064-2.179 24.347-6.009 8.374 7.147 13.153 17.443 13.153 28.509zm45-27.5c0 6.893-5.607 12.5-12.5 12.5h-17.5v-187h17.5c6.893 0 12.5 5.607 12.5 12.5z"/></symbol><symbol id="hacker" viewBox="0 0 512 512"><title>hacker</title><path d="m472.25 337.868c-1.67-2.661-3.39-5.401-5.159-8.229-2.197-3.512-6.824-4.579-10.336-2.382-3.512 2.196-4.578 6.824-2.382 10.336 1.773 2.835 3.498 5.582 5.171 8.249 10.941 17.433 19.647 31.314 25.907 44.122-15.677-11.584-34.208-18.139-43.453-20.921v-118.793c0-12.407-10.093-22.5-22.5-22.5h-21.338c-2.069-10.33-4.036-20.618-5.942-30.619-12.413-65.133-23.133-121.384-55.13-155.756-2.824-3.032-7.569-3.201-10.6-.379-3.032 2.823-3.202 7.568-.379 10.6 24.264 26.064 35.478 68.223 45.494 118.03-3.967-6.629-8.441-13.465-13.468-20.341-23.38-31.988-58.698-48.895-102.135-48.895s-78.755 16.907-102.137 48.894c-5.026 6.876-9.5 13.712-13.468 20.342 16.758-83.339 36.888-145.376 115.605-145.376 20.525 0 37.401 4.052 51.593 12.387 3.571 2.096 8.168.903 10.266-2.669s.902-8.168-2.669-10.266c-16.559-9.724-35.92-14.452-59.19-14.452-45.565 0-78.042 18.91-99.288 57.81-18.652 34.151-27.532 80.743-36.932 130.072-1.906 10.001-3.873 20.289-5.942 30.619h-21.338c-12.407 0-22.5 10.093-22.5 22.5v37.977c-11.357 19.534-21.38 35.509-30.25 49.64-24.788 39.494-39.75 63.333-39.75 98.129 0 20.529 9.902 35.72 28.637 43.932 13.652 5.984 29.883 7.447 42.628 7.748 3.075 8.767 11.43 15.073 21.235 15.073h327c9.805 0 18.16-6.306 21.235-15.073 12.745-.302 28.976-1.765 42.628-7.748 18.735-8.212 28.637-23.404 28.637-43.932 0-34.795-14.962-58.634-39.75-98.129zm-90.305-110.118h-37.741l5.483-30.954c4.372-5.158 7.55-11.466 9.479-18.688 12.165 20.553 19.269 39.066 22.779 49.642zm-36.856-70.86c.011.014.022.029.033.043.817 1.066 1.24 2.235 1.24 3.499 0 17.024-6.154 37.317-35.473 37.317-23.519 0-34.473-10.951-34.473-34.464 0-5.605 13.292-13.713 37.326-13.713 16.578.001 27.732 2.675 31.347 7.318zm-22.429-22.058c-2.81-.169-5.774-.259-8.917-.259-23.26 0-41.217 6.733-48.623 17.306-2.481-.652-5.488-1.028-9.119-1.028s-6.639.377-9.119 1.028c-7.406-10.573-25.363-17.306-48.623-17.306-3.144 0-6.107.089-8.918.259 18.102-12.913 40.403-19.441 66.66-19.441 26.256-.001 48.557 6.527 66.659 19.441zm-157.022 25.601c0-1.267.424-2.438 1.245-3.506.008-.011.017-.022.025-.033 3.612-4.645 14.768-7.321 31.349-7.321 24.034 0 37.326 8.108 37.326 13.713 0 23.513-10.954 34.464-34.473 34.464-29.318 0-35.472-20.293-35.472-37.317zm-12.804 17.675c1.929 7.222 5.107 13.53 9.479 18.688l5.483 30.954h-37.741c3.511-10.578 10.614-29.091 22.779-49.642zm-137.834 257.889c0-30.478 13.304-51.675 37.455-90.155 5.406-8.613 11.24-17.91 17.545-28.279v51.494c-5.556 1.685-14.517 4.749-24.189 9.446-3.726 1.81-5.28 6.297-3.47 10.023 1.297 2.671 3.97 4.226 6.752 4.226 1.099 0 2.216-.243 3.271-.755 6.554-3.183 12.81-5.554 17.637-7.182v65.436c0 4.634 1.409 8.945 3.82 12.528-2.343 2.625-3.785 6.066-3.814 9.847-37.962-1.285-55.007-12.731-55.007-36.629zm412 44.253c0 4.136-3.364 7.5-7.5 7.5h-327c-4.136 0-7.5-3.364-7.5-7.5l-.01-7.5h155.933c4.142 0 7.5-3.358 7.5-7.5s-3.358-7.5-7.5-7.5h-148.423c-4.136 0-7.5-3.364-7.5-7.5v-200c0-4.136 3.364-7.5 7.5-7.5h160.705l-32.368 100.705c-.733 2.282-.332 4.776 1.08 6.713s3.664 3.082 6.061 3.082h38.711l-25.323 78.785c-1.268 3.943.902 8.167 4.845 9.435 3.941 1.266 8.167-.902 9.435-4.845l28.471-88.58c.733-2.282.332-4.776-1.08-6.713s-3.664-3.082-6.061-3.082h-38.711l32.368-100.705c.733-2.282.332-4.776-1.08-6.713s-3.664-3.082-6.061-3.082h-80.462l-3.317-18.727c6.329 2.459 13.52 3.727 21.398 3.727 30.861 0 48.308-16.44 49.414-46.387 2.921-.687 8.029-.687 10.95 0 1.107 29.947 18.553 46.387 49.414 46.387 7.878 0 15.069-1.269 21.398-3.727l-3.317 18.727h-35.476c-4.142 0-7.5 3.358-7.5 7.5s3.358 7.5 7.5 7.5h126.006c4.136 0 7.5 3.364 7.5 7.5v200c0 4.136-3.364 7.5-7.5 7.5h-148.577c-4.142 0-7.5 3.358-7.5 7.5s3.358 7.5 7.5 7.5l148.393-.009c.062.002.122.009.184.009.123 0 .244-.007.367-.009h7.133zm14.994-7.625c-.029-3.78-1.471-7.222-3.814-9.847 2.411-3.583 3.82-7.894 3.82-12.528v-65.441c17.781 5.98 55 21.988 55 51.187 0 23.899-17.045 35.345-55.006 36.629z"/></symbol><symbol id="hacker-1" viewBox="0 0 64 64"><title>hacker-1</title><path d="m58 15h-12.514c-.934-3.914-3.118-7.445-6.307-10.055l-2.997-2.453c-1.177-.962-2.661-1.492-4.182-1.492s-3.005.53-4.181 1.493l-2.998 2.453c-3.19 2.61-5.373 6.141-6.307 10.055h-12.514c-2.757 0-5 2.243-5 5v28c0 2.757 2.243 5 5 5h12.82l-.667 4h-1.153c-1.654 0-3 1.346-3 3v3h36v-3c0-1.654-1.346-3-3-3h-1.153l-.667-4h12.82c2.757 0 5-2.243 5-5v-28.001c0-2.757-2.243-5-5-5zm0 2c1.654 0 3 1.346 3 3v25h-8.034c-.322-6.639-3.826-12.795-9.381-16.485 1.559-2.748 2.415-5.891 2.415-9.176 0-.789-.055-1.569-.151-2.339zm-15 25v3h-22v-3h-2v3h-5.966c.32-5.958 3.473-11.476 8.456-14.799 1.361 1.888 3.087 3.533 5.124 4.83l1.162.74c.51.324 1.058.569 1.621.768-.245.433-.397.927-.397 1.461 0 1.654 1.346 3 3 3s3-1.346 3-3c0-.534-.152-1.028-.397-1.462.563-.198 1.111-.443 1.621-.768l1.162-.74c2.037-1.297 3.763-2.941 5.124-4.83 4.983 3.323 8.136 8.841 8.456 14.799h-5.966v-3h-2zm-6.688-8.657-1.162.74c-.657.418-1.393.68-2.15.807v-1.991c2.279-.465 4-2.484 4-4.899v-2.353c2.568-1.491 4.409-4.089 4.874-7.138 1.022.773 1.739 1.471 2.094 1.845-.319 5.306-3.129 10.108-7.656 12.989zm-3.312 4.657c0 .551-.448 1-1 1s-1-.449-1-1 .448-1 1-1 1 .449 1 1zm-4-11.461c.948.298 1.955.461 3 .461s2.052-.163 3-.461v1.461c0 1.654-1.346 3-3 3s-3-1.346-3-3zm3-1.539c-4.327 0-7.855-3.456-7.987-7.752 2.052-1.195 4.77-2.248 7.987-2.248s5.935 1.053 7.987 2.248c-.132 4.296-3.66 7.752-7.987 7.752zm-9.874-6.492c.465 3.05 2.305 5.647 4.874 7.138v2.354c0 2.414 1.721 4.434 4 4.899v1.991c-.758-.127-1.494-.39-2.15-.807l-1.162-.74c-4.527-2.881-7.337-7.683-7.656-12.99.355-.374 1.073-1.071 2.094-1.845zm3.961-12.015 2.998-2.453h.001c.819-.67 1.854-1.04 2.914-1.04s2.095.37 2.915 1.041l2.998 2.453c3.402 2.784 5.525 6.742 5.988 11.055-2.232-1.883-6.361-4.549-11.901-4.549s-9.669 2.666-11.901 4.548c.463-4.313 2.586-8.271 5.988-11.055zm-20.087 10.507h12.151c-.096.771-.151 1.551-.151 2.339 0 3.285.856 6.428 2.414 9.176-5.554 3.69-9.058 9.845-9.381 16.485h-8.033v-25c0-1.654 1.346-3 3-3zm42 43v1h-32v-1c0-.551.448-1 1-1h30c.552 0 1 .449 1 1zm-4.18-3h-23.64l.667-4h22.306zm14.18-6h-52c-1.654 0-3-1.346-3-3v-1h58v1c0 1.654-1.346 3-3 3z"/><path d="m48 19h2v2h-2z"/><path d="m52 19h2v2h-2z"/><path d="m56 19h2v2h-2z"/><path d="m6 19h2v2h-2z"/><path d="m10 19h2v2h-2z"/><path d="m14 19h2v2h-2z"/></symbol><symbol id="boy" viewBox="0 0 512.003 512.003"><title>boy</title><path d="m72.002 453.191c-3.972-1.18-8.146 1.077-9.329 5.048-3.971 13.332-5.984 28.837-5.984 46.083 0 4.143 3.358 7.5 7.5 7.5s7.5-3.357 7.5-7.5c0-15.796 1.803-29.859 5.36-41.802 1.183-3.97-1.077-8.146-5.047-9.329z"/><path d="m422.762 414.576c-.84-10.677-6.493-42.806-43.562-63.359v-4.855c0-3.229-2.065-6.094-5.128-7.115l-30-10.002c-2.288-.761-4.801-.379-6.757 1.031-1.956 1.409-3.115 3.673-3.115 6.084v.144c-8.505-1.365-17.592-2.215-27.173-2.55 11.227-6.956 21.572-16.258 30.637-27.722 12.679-16.033 21.963-35.178 27.4-56.044 2.509.608 5.09.935 7.695.935 17.98 0 32.608-14.613 32.608-32.575 0-10.313-4.827-19.515-12.336-25.488 7.369-21.126 11.026-46.3 10.071-69.962-.167-4.139-3.67-7.329-7.796-7.191-4.139.167-7.358 3.658-7.192 7.797.859 21.302-2.314 43.864-8.746 62.942-2.135-.441-4.345-.674-6.609-.674-.698 0-1.393.03-2.085.074v-22.684c0-29.26-22.028-53.455-50.365-56.909-.342-9.161.425-26.639 9.935-37.104 5.698-6.27 13.769-9.118 24.671-8.695 15.359 1.603 23.447 16.605 27.529 28.94 1.301 3.932 5.542 6.064 9.477 4.764 3.932-1.301 6.065-5.544 4.764-9.477-7.772-23.485-22.156-37.399-40.405-39.17-.786-.086-1.459-.595-1.757-1.328-.048-.118-.1-.235-.154-.352-10.499-22.408-34.296-36.94-68.82-42.025-26.733-3.938-59.125-2.021-88.866 5.258-47.189 11.513-77.311 34.411-87.077 66.127-8.747 27.122-8.565 83.269 10.081 119.108-7.92 5.949-13.052 15.411-13.052 26.05 0 17.962 14.628 32.575 32.608 32.575 2.616 0 5.208-.33 7.727-.943 2.974 11.392 7.093 22.317 12.313 32.518 1.888 3.687 6.406 5.145 10.093 3.26 3.688-1.887 5.147-6.406 3.26-10.094-10.669-20.848-16.308-45.095-16.308-70.118v-42.385c0-23.352 18.993-42.349 42.339-42.349h114.668c23.346 0 42.339 18.997 42.339 42.349v42.385c0 70.595-44.713 128.028-99.673 128.028-24.378 0-47.863-11.476-66.127-32.313-2.731-3.117-7.47-3.427-10.583-.697-3.115 2.73-3.427 7.47-.697 10.584 8.004 9.132 16.917 16.708 26.461 22.603-9.609.333-18.723 1.184-27.251 2.553v-.144c0-2.411-1.159-4.675-3.115-6.084-1.956-1.411-4.472-1.793-6.757-1.031l-30 10.002c-3.063 1.021-5.128 3.887-5.128 7.115v4.855c-36.991 20.51-42.699 52.548-43.557 63.293-2.865 2.65-5.626 5.5-8.221 8.625-2.647 3.186-2.209 7.914.977 10.562 1.401 1.163 3.1 1.73 4.789 1.73 2.153 0 4.29-.922 5.773-2.708 11.089-13.349 25.5-21.36 40.241-27.429v99.032c0 4.143 3.358 7.5 7.5 7.5s7.5-3.357 7.5-7.5v-152.556l15-5.001v157.556c0 4.143 3.358 7.5 7.5 7.5s7.5-3.357 7.5-7.5v-115.256c9.245-3.709 18.045-8.135 25.363-14.116 8.063 8.474 25.193 21.901 52.834 21.901s44.772-13.428 52.835-21.901c7.318 5.982 16.119 10.408 25.364 14.117v115.256c0 4.143 3.358 7.5 7.5 7.5s7.5-3.357 7.5-7.5v-157.557l15 5.001v152.555c0 4.143 3.358 7.5 7.5 7.5s7.5-3.357 7.5-7.5v-99.016c13.88 5.745 28.223 13.572 39.127 26.105 14.794 17.005 21.986 40.854 21.986 72.911 0 4.143 3.358 7.5 7.5 7.5s7.5-3.357 7.5-7.5c-.002-44.788-13.21-71.892-32.553-89.746zm-283.519-178.452c-9.709 0-17.608-7.884-17.608-17.575s7.899-17.576 17.608-17.576c.703 0 1.396.055 2.085.136v4.638c0 10.079.848 20.05 2.496 29.774-1.485.397-3.026.603-4.581.603zm2.085-72.762v22.684c-.692-.044-1.387-.074-2.085-.074-1.961 0-3.878.184-5.744.516-16.851-31.415-17.244-84.847-9.587-108.59 5.688-18.469 23.546-43.187 76.331-56.064 27.935-6.836 58.23-8.655 83.12-4.989 19.45 2.864 44.429 10.499 55.792 30.435-7.961 2.077-14.675 6.089-20.057 12.03-12.685 14.005-14.134 35.025-13.818 46.703h-106.613c-31.616 0-57.339 25.727-57.339 57.349zm231.432 37.61c9.709 0 17.608 7.885 17.608 17.576s-7.899 17.575-17.608 17.575c-1.55 0-3.085-.204-4.565-.599 1.634-9.686 2.48-19.652 2.48-29.778v-4.638c.688-.08 1.382-.136 2.085-.136zm-265.32 200.122c3.505-9.719 10.685-22.007 25.364-32.227v20.299c-8.333 3.192-16.999 6.994-25.364 11.928zm70.364-49.384c8.327-1.459 17.326-2.374 26.894-2.74-3.641 8.964-11.427 16.615-26.894 23.74zm78.197 30.14c-23.18 0-36.896-11.619-42.599-17.871 4.109-5.952 7.042-13.061 8.364-21.682 10.97 4.261 22.496 6.477 34.235 6.477 11.798 0 23.309-2.2 34.242-6.432 1.325 8.599 4.255 15.693 8.355 21.634-5.718 6.27-19.431 17.874-42.597 17.874zm51.476-32.874c9.505.37 18.446 1.283 26.723 2.734v21.064c-13.106-5.906-22.288-12.875-26.723-23.798zm71.723 19.891c14.727 10.254 21.905 22.589 25.398 32.323-8.044-4.762-16.621-8.637-25.398-12.021z"/><path d="m256.001 478.364c-4.142 0-7.5 3.357-7.5 7.5v18.639c0 4.143 3.358 7.5 7.5 7.5s7.5-3.357 7.5-7.5v-18.639c0-4.143-3.358-7.5-7.5-7.5z"/><path d="m229.749 279.039c-2.665 3.172-2.254 7.902.917 10.567 7.077 5.946 16.074 9.222 25.335 9.222s18.258-3.275 25.335-9.222c3.171-2.665 3.582-7.396.917-10.567-2.666-3.172-7.396-3.581-10.567-.917-4.379 3.68-9.95 5.706-15.686 5.706s-11.307-2.026-15.686-5.706c-3.169-2.665-7.9-2.253-10.565.917z"/><path d="m252.404 253.693c.709-.596 1.909-1.307 3.598-1.307s2.889.711 3.598 1.307c1.406 1.183 3.119 1.76 4.823 1.76 2.138 0 4.261-.909 5.745-2.674 2.666-3.17 2.256-7.901-.914-10.566-3.702-3.112-8.407-4.826-13.251-4.826s-9.549 1.714-13.251 4.826c-3.17 2.665-3.58 7.396-.914 10.566 2.663 3.171 7.394 3.58 10.566.914z"/></symbol><symbol id="teen" viewBox="0 0 480.001 480.001"><title>teen</title><path d="m319.427 342.172c-11.783 0-22.472-6-28.594-16.051-2.299-3.774-7.221-4.971-10.994-2.671-3.773 2.298-4.969 7.22-2.671 10.993 4.258 6.991 10.022 12.635 16.733 16.674l-8.291 37.626-19.989-23.017c3.637-4.184 2.746-9.053-.372-11.764-3.335-2.899-8.388-2.546-11.286.788l-14.066 16.176-35.433-39.37c3.015-5.789 4.842-12.143 5.365-18.765 68.577 20.187 137.171-31.571 137.171-102.661 0-67.834.082-66.77-.192-69.552-.501-5.166-4.652-7.936-8.736-7.554-4.018.373-7.702 3.799-7.187 9.124.179 1.811.115 3.379.115 67.981 0 50.178-40.822 91-91 91s-91-40.822-91-91c0-17.885-.187-31.426-.254-42.443-.162-26.266 24.13-46.203 50.389-39.907 37.071 8.89 51.989 32.003 99.482 29.785 4.413-.207 7.823-3.953 7.616-8.366-.208-4.414-3.964-7.835-8.366-7.616-42.979 2.01-54.517-19.652-95-29.361-36.454-8.741-70.346 18.992-70.121 55.563.049 7.996.165 17.662.222 29.297-5.326-2.777-8.968-8.286-8.968-14.621v-97.46c0-10.477 8.523-19 19-19 3.271 0 6.213-1.991 7.428-5.029 10.927-27.319 37.001-44.971 66.424-44.971h68.148c39.701 0 72 32.299 72 72v94.46c0 4.418 3.582 8 8 8s8-3.582 8-8v-94.46c0-48.523-39.477-88-88-88h-68.148c-34.321 0-64.917 19.63-79.285 50.421-16.727 2.619-29.567 17.128-29.567 34.579v97.46c0 15.304 10.709 28.167 25.081 31.621 1.491 40.861 25.999 75.947 60.919 92.644v2.105c0 8.913-3.476 17.287-9.788 23.581-11.192 11.161-25.298 9.761-23.641 9.761-45.637 0-82.571 36.93-82.571 82.571v47.257c0 4.418 3.582 8 8 8s8-3.582 8-8v-47.257c0-36.795 29.775-66.571 66.573-66.571 3.502 0 6.997-.372 10.452-1.111l11.162 50.661c1.415 6.424 9.561 8.468 13.853 3.523l15.761-18.147-9.739 77.91c-.548 4.384 2.562 8.383 6.946 8.931 4.393.548 8.383-2.57 8.93-6.946l11.255-90.041c.497.552 4.967 5.565 5.523 6.053 3.183 2.843 8.287 2.671 11.276-.709.669-.761-1.963 2.263 4.794-5.507l11.276 90.205c.548 4.384 4.544 7.494 8.93 6.946 4.384-.548 7.494-4.547 6.946-8.931l-9.739-77.91 15.761 18.147c4.308 4.959 12.442 2.88 13.853-3.523l11.163-50.662c3.389.72 6.883 1.112 10.451 1.112 36.794 0 66.573 29.772 66.573 66.571v47.256c0 4.418 3.582 8 8 8s8-3.582 8-8v-47.257c0-45.638-36.932-82.573-82.573-82.571zm-125.037 46.572-8.293-37.638c3.05-1.841 5.911-4.035 8.548-6.543l19.397 21.552z"/></symbol><symbol id="woman" viewBox="0 0 479.971 479.971"><title>woman</title><path d="m402.022 424.714v47.257c0 4.418-3.582 8-8 8s-8-3.582-8-8v-47.257c0-36.795-29.775-66.571-66.573-66.571-17.411 0-33.209-8.87-42.258-23.729-2.299-3.773-1.103-8.695 2.671-10.993 3.771-2.301 8.694-1.104 10.993 2.671 6.122 10.051 16.812 16.051 28.594 16.051 45.637-.002 82.573 36.93 82.573 82.571zm23.476-146.922c8.058-11.947 7.358-27.499-1.74-38.699l-15.308-18.844c-3.473-4.274-4.605-9.943-3.032-15.165l9.049-30.024c4.138-13.73-1.152-28.389-13.162-36.474l-17.986-12.107c-6.012-4.047-8.777-11.369-6.883-18.222 5.616-20.298-9.332-40.554-30.778-41.469l-7.954-.338c-13.586-.578-24.9-10.057-27.515-23.049l-.561-2.789c-4.446-22.096-29.49-32.849-48.874-21.947-6.727 3.783-15.245 2.684-20.716-2.673l-6.682-6.542c-12.867-12.6-33.803-12.6-46.67 0l-14.598 14.293c-2.526 2.474-5.732 4.09-9.271 4.676l-30.18 4.989c-25.597 4.233-41.747 29.307-34.937 53.762l5.928 21.283c1.877 6.738-.835 13.94-6.751 17.921l-18.323 12.336c-11.899 8.012-17.14 22.535-13.04 36.139l9.156 30.384c1.545 5.128.433 10.695-2.977 14.893l-15.547 19.138c-9.016 11.098-9.709 26.508-1.725 38.345l14.973 22.201c4.003 5.936 3.666 13.677-.838 19.263l-2.217 2.748c-12.031 14.924-10.756 36.313 2.967 49.75 1.558 1.524 3.578 2.284 5.597 2.284 7.111 0 10.73-8.691 5.599-13.716-7.807-7.644-8.539-19.8-1.707-28.275l2.216-2.747c8.939-11.087 9.603-26.459 1.649-38.252l-14.974-22.202c-4.018-5.957-3.665-13.718.878-19.311l15.548-19.138c6.757-8.319 8.955-19.383 5.878-29.597l-9.157-30.385c-2.063-6.846.612-14.18 6.656-18.249l18.322-12.335c11.644-7.836 16.96-22.098 13.23-35.487l-5.928-21.283c-4.366-15.671 6.282-31.064 22.134-33.685l30.181-4.989c6.795-1.123 12.969-4.245 17.854-9.028l14.598-14.294c6.694-6.554 17.588-6.556 24.282 0l6.682 6.543c10.521 10.299 26.869 12.433 39.754 5.186 10.287-5.79 23.119.101 25.345 11.157l.561 2.789c4.07 20.232 21.555 34.986 42.52 35.88l7.954.338c11.168.475 18.907 10.85 16.038 21.217-3.732 13.494 1.641 27.865 13.368 35.761l17.986 12.107c6.155 4.143 8.879 11.611 6.777 18.583l-9.049 30.025c-3.105 10.307-.888 21.473 5.934 29.869l15.308 18.844c4.627 5.695 4.985 13.598.894 19.665l-14.727 21.837c-8.026 11.9-7.357 27.415 1.665 38.605 2.41 2.987 5.092 5.852 6.283 11.315.943 4.317 5.206 7.05 9.522 6.11 4.316-.942 7.052-5.205 6.11-9.522-2.038-9.334-6.722-14.55-9.462-17.947-4.587-5.688-4.93-13.572-.854-19.616zm-81.838 105.993c-57.916 16.11-115.435 3.468-160.12-31.258 14.493-7.597 24.94-22.255 26.314-39.797 68.278 20.158 136.617-31.119 137.165-101.795.005-.178.003-41.551.003-41.729 0-44.112-35.888-80-80-80h-27.448c-27.16 0-52.039 15.521-61.908 38.623-6.027 14.106-3.441 23.54-5.509 34.684-3.399 18.317-18.31 35.691-44.317 51.641-3.766 2.31-4.947 7.235-2.637 11.002 2.31 3.766 7.234 4.948 11.002 2.637 30.033-18.417 47.422-39.398 51.683-62.359 2.382-12.821-.146-20.463 4.491-31.317 7.388-17.291 26.354-28.909 47.195-28.909h27.448c35.29 0 64 28.71 64 64v40.892c0 50.178-40.822 91-91 91-35.572 0-68.094-20.923-82.852-53.303-1.832-4.021-6.577-5.795-10.597-3.962-4.021 1.832-5.795 6.576-3.962 10.597 10.626 23.314 29.091 41.562 51.41 52.216v2.157c0 18.444-14.945 33.342-33.427 33.342-45.733 0-82.573 37.021-82.573 82.571v47.257c0 4.418 3.582 8 8 8s8-3.582 8-8v-47.257c0-36.793 29.775-66.571 66.573-66.571 1.473 0 2.928-.074 4.367-.199 49.027 42.755 115.674 59.981 182.988 41.254 4.257-1.184 6.747-5.595 5.563-9.852-1.184-4.259-5.592-6.751-9.852-5.565z"/></symbol><symbol id="man" viewBox="0 0 480 480"><title>man</title><path d="m319.426 342.172c-11.782 0-22.471-6-28.594-16.051-2.299-3.773-7.222-4.971-10.994-2.67-3.773 2.298-4.969 7.22-2.67 10.994 4.258 6.99 10.022 12.634 16.733 16.673l-8.291 37.626-19.989-23.017c3.71-4.267 2.659-9.128-.372-11.764-3.335-2.9-8.388-2.546-11.286.787l-14.066 16.177-35.432-39.369c3.016-5.791 4.843-12.147 5.366-18.771 68.317 20.111 136.619-31.164 137.166-101.823.005-.166.003-65.567.003-65.733 0-30.877-25.122-55.997-56-55.997h-102c-30.878 0-56 25.122-56 56v51.862c-5.344-2.772-9-8.288-9-14.636v-49.96c0-64.238 52.262-116.5 116.5-116.5s116.5 52.262 116.5 116.5v49.96c0 4.418 3.582 8 8 8s8-3.582 8-8v-49.96c0-73.061-59.439-132.5-132.5-132.5s-132.5 59.439-132.5 132.5v49.96c0 15.303 10.707 28.165 25.077 31.62 1.494 40.859 26.003 75.946 60.923 92.643v2.107c0 8.913-3.476 17.287-9.788 23.581-11.192 11.161-25.298 9.761-23.641 9.761-45.635 0-82.571 36.929-82.571 82.571v47.257c0 4.418 3.582 8 8 8s8-3.582 8-8v-47.257c0-22.6 11.224-42.95 29.385-55.232v102.489c0 4.418 3.582 8 8 8s8-3.582 8-8v-110.382c15.507-5.188 20.485-2.172 31.64-4.557l11.162 50.66c1.412 6.41 9.549 8.48 13.853 3.524l28.786-33.147c9.746 10.829 9.428 10.598 10.429 11.337 1.56 1.156 3.612 1.766 5.744 1.494 3.883-.487 4.566-2.138 14.02-13.01l28.941 33.326c4.304 4.956 12.441 2.886 13.853-3.524l11.163-50.662c3.389.72 6.883 1.112 10.452 1.112 36.792 0 66.572 29.774 66.572 66.572v47.257c0 4.418 3.582 8 8 8s8-3.582 8-8v-47.257c0-45.638-36.932-82.572-82.574-82.571zm-170.426-132.047v-64.891c0-22.056 17.944-40 40-40h102c22.056 0 40 17.942 40 39.997v64.895c0 50.178-40.822 91-91 91s-91-40.823-91-91.001zm45.39 178.619-8.293-37.638c3.05-1.841 5.911-4.035 8.548-6.543l19.397 21.552zm162.225-1.219v84.475c0 4.418-3.582 8-8 8s-8-3.582-8-8v-84.475c0-4.418 3.582-8 8-8s8 3.581 8 8zm-94.041-123.648c21.679-2.049 31.282-22.2 31.681-23.057 2.621-5.641-1.938-11.988-8.1-11.327-15.358 1.621-15.396-9.834-28.166-13.208-5.581-1.476-11.617-.767-17.99 2.104-6.374-2.87-12.409-3.58-17.99-2.104-12.8 3.382-12.786 14.831-28.165 13.208-6.161-.66-10.722 5.683-8.1 11.327.398.857 10.002 21.008 31.681 23.057 9.597.909 17.45-2.145 22.574-5.068 6.797 3.877 14.548 5.827 22.575 5.068zm-54.32-20.247c15.942-5.681 13.539-17.542 27.74-9.329 2.479 1.434 5.533 1.434 8.012 0 14.18-8.201 11.756 3.613 27.74 9.329-8.585 6.552-19.141 5.356-26.773-.699-2.912-2.31-7.032-2.311-9.944 0-7.662 6.077-18.205 7.24-26.775.699z"/></symbol></svg>